<?xml version="1.0" encoding="utf-8"?>
<!-- Generator: Adobe Illustrator 25.4.0, SVG Export Plug-In . SVG Version: 6.00 Build 0)  -->
<svg version="1.1" id="Layer_1" xmlns="http://www.w3.org/2000/svg" xmlns:xlink="http://www.w3.org/1999/xlink" x="0px" y="0px"
	 viewBox="0 0 37.9 38" style="enable-background:new 0 0 37.9 38;" xml:space="preserve">
<style type="text/css">
	.st0{fill:#212121;}
	.st1{fill:url(#SVGID_1_);}
	.st2{fill:#0078D4;}
	.st3{fill:url(#SVGID_00000016068150252418709880000004690232463468429475_);}
	.st4{fill:url(#SVGID_00000013184235141025376580000010624173400890723481_);}
</style>
<g id="bkg">
	<path class="st0" d="M29.4,38H8.6C3.9,38,0,34.1,0,29.4V8.6C0,3.9,3.9,0,8.6,0h20.7c4.8,0,8.6,3.9,8.6,8.6v20.7
		C38,34.1,34.1,38,29.4,38z"/>
</g>
<g>
	
		<linearGradient id="SVGID_1_" gradientUnits="userSpaceOnUse" x1="97.0803" y1="-85.0855" x2="94.4681" y2="-92.8022" gradientTransform="matrix(3.1215 0 0 -3.1215 -285.6453 -257.244)">
		<stop  offset="0" style="stop-color:#114A8B"/>
		<stop  offset="1" style="stop-color:#0669BC"/>
	</linearGradient>
	<path class="st1" d="M14.5,6.5h7.8l-8.1,24.1c0,0.1-0.1,0.2-0.2,0.3c-0.1,0.1-0.2,0.2-0.3,0.3c-0.1,0.1-0.2,0.1-0.3,0.2
		c-0.1,0-0.3,0.1-0.4,0.1H6.9c-0.2,0-0.4,0-0.6-0.1C6.2,31.3,6,31.1,5.9,31c-0.1-0.2-0.2-0.3-0.2-0.5c0-0.2,0-0.4,0.1-0.6l7.6-22.5
		c0-0.1,0.1-0.2,0.2-0.3c0.1-0.1,0.2-0.2,0.3-0.3c0.1-0.1,0.2-0.1,0.3-0.2C14.3,6.5,14.4,6.5,14.5,6.5L14.5,6.5L14.5,6.5z"/>
	<path class="st2" d="M29,31.5h-7c-0.1,0-0.2,0-0.2,0c-0.1,0-0.2,0-0.2-0.1c-0.1,0-0.1-0.1-0.2-0.1c-0.1,0-0.1-0.1-0.2-0.1l-8-7.5
		c-0.1-0.1-0.1-0.2-0.2-0.3c-0.1-0.2,0-0.5,0.2-0.6c0.1-0.1,0.2-0.1,0.3-0.1h12.4L29,31.5L29,31.5z"/>
	
		<linearGradient id="SVGID_00000108997624806040293590000006456493308191138957_" gradientUnits="userSpaceOnUse" x1="97.8955" y1="-88.6818" x2="97.2913" y2="-88.8867" gradientTransform="matrix(3.1215 0 0 -3.1215 -285.6453 -257.244)">
		<stop  offset="0" style="stop-color:#000000;stop-opacity:0.3"/>
		<stop  offset="0.1" style="stop-color:#000000;stop-opacity:0.2"/>
		<stop  offset="0.3" style="stop-color:#000000;stop-opacity:0.1"/>
		<stop  offset="0.6" style="stop-color:#000000;stop-opacity:0.1"/>
		<stop  offset="1" style="stop-color:#000000;stop-opacity:0"/>
	</linearGradient>
	<path style="fill:url(#SVGID_00000108997624806040293590000006456493308191138957_);" d="M22.4,6.5l-5.5,16.2l9,0l3.1,8.8h-7
		c-0.1,0-0.1,0-0.2,0c-0.1,0-0.1,0-0.2-0.1c-0.1,0-0.3-0.1-0.4-0.2l-5.4-5l-1.5,4.5c0,0.1-0.1,0.2-0.2,0.3c-0.1,0.2-0.3,0.4-0.5,0.5
		c-0.1,0.1-0.2,0.1-0.3,0.1H6.9c-0.2,0-0.4,0-0.6-0.1c-0.4-0.2-0.6-0.5-0.7-0.9c0-0.2,0-0.4,0.1-0.6l7.6-22.5c0-0.1,0.1-0.2,0.2-0.4
		c0.1-0.1,0.2-0.2,0.3-0.3c0.1-0.1,0.2-0.1,0.3-0.2c0.1,0,0.3-0.1,0.4-0.1H22.4L22.4,6.5z"/>
	
		<linearGradient id="SVGID_00000058583051706601968010000016730545576051481746_" gradientUnits="userSpaceOnUse" x1="97.581" y1="-84.8534" x2="100.4481" y2="-92.4915" gradientTransform="matrix(3.1215 0 0 -3.1215 -285.6453 -257.244)">
		<stop  offset="0" style="stop-color:#3CCBF4"/>
		<stop  offset="1" style="stop-color:#2892DF"/>
	</linearGradient>
	<path style="fill:url(#SVGID_00000058583051706601968010000016730545576051481746_);" d="M32.1,29.8c0.1,0.2,0.1,0.4,0.1,0.6
		c0,0.2-0.1,0.4-0.2,0.5c-0.2,0.3-0.6,0.5-1,0.5h-8.7c0.2,0,0.4,0,0.6-0.1c0.2-0.1,0.3-0.2,0.4-0.4s0.2-0.3,0.2-0.5
		c0-0.2,0-0.4-0.1-0.6L15.8,7.4c-0.1-0.2-0.2-0.5-0.5-0.6c-0.1-0.1-0.2-0.1-0.3-0.2c-0.1,0-0.3-0.1-0.4-0.1h8.7c0.1,0,0.3,0,0.4,0.1
		c0.1,0,0.2,0.1,0.3,0.2c0.1,0.1,0.2,0.2,0.3,0.3c0.1,0.1,0.1,0.2,0.2,0.3L32.1,29.8L32.1,29.8z"/>
</g>
</svg>
