<?xml version="1.0" encoding="utf-8"?>
<!-- Generator: Adobe Illustrator 25.4.0, SVG Export Plug-In . SVG Version: 6.00 Build 0)  -->
<svg version="1.1" xmlns="http://www.w3.org/2000/svg" xmlns:xlink="http://www.w3.org/1999/xlink" x="0px" y="0px"
	 viewBox="0 0 37.9 38" style="enable-background:new 0 0 37.9 38;" xml:space="preserve">
<style type="text/css">
	.st0{fill:#253858;}
	.st1{fill:none;}
	.st2{fill:#2684FF;}
	.st3{fill:url(#SVGID_1_);}
</style>
<g id="Layer_1">
	<g id="Layer_1_00000154386492545488396280000012159222154907207566_">
		<g id="bkg">
			<path class="st0" d="M29.4,38H8.6C3.9,38,0,34.1,0,29.4V8.6C0,3.9,3.9,0,8.6,0h20.7c4.8,0,8.6,3.9,8.6,8.6v20.7
				C38,34.1,34.1,38,29.4,38z"/>
		</g>
	</g>
</g>
<g id="Layer_2">
	<g>
		<path class="st1" d="M16.6,22.3h4.6l1.1-6.5h-7L16.6,22.3z"/>
		<path class="st2" d="M8.6,9C8.2,9,7.8,9.3,7.8,9.7c0,0,0,0.1,0,0.1l3,18.4c0.1,0.5,0.5,0.8,0.9,0.8h14.5c0.4,0,0.7-0.3,0.7-0.6
			l3-18.6c0.1-0.4-0.2-0.8-0.6-0.8c0,0-0.1,0-0.1,0L8.6,9z M21.3,22.3h-4.6l-1.3-6.6h7L21.3,22.3z"/>
		
			<linearGradient id="SVGID_1_" gradientUnits="userSpaceOnUse" x1="-979.6855" y1="1019.8416" x2="-979.691" y2="1019.8358" gradientTransform="matrix(1996.6343 0 0 -1480.3047 1956104.25 1509693.875)">
			<stop  offset="0.18" style="stop-color:#0052CC"/>
			<stop  offset="1" style="stop-color:#2684FF"/>
		</linearGradient>
		<path class="st3" d="M29.1,15.7h-6.7l-1.1,6.5h-4.6l-5.5,6.5c0.2,0.1,0.4,0.2,0.6,0.2h14.5c0.4,0,0.7-0.2,0.7-0.6L29.1,15.7z"/>
	</g>
</g>
</svg>
