<?xml version="1.0" encoding="utf-8"?>
<!-- Generator: Adobe Illustrator 25.4.0, SVG Export Plug-In . SVG Version: 6.00 Build 0)  -->
<svg version="1.1" id="Layer_1" xmlns="http://www.w3.org/2000/svg" xmlns:xlink="http://www.w3.org/1999/xlink" x="0px" y="0px"
	 viewBox="0 0 37.9 38" style="enable-background:new 0 0 37.9 38;" xml:space="preserve">
<style type="text/css">
	.st0{fill:#263238;}
	.st1{display:none;}
	.st2{display:inline;fill:#326CE5;}
	.st3{display:inline;fill:url(#SVGID_1_);}
	.st4{display:inline;fill:#FFFFFF;}
	.st5{fill:url(#SVGID_00000084497887716680560980000006045844128770958008_);}
	.st6{fill:url(#SVGID_00000058575531747325832650000011896872544634518192_);}
	.st7{fill:none;}
	.st8{fill:#326CE5;}
	.st9{fill:#FFFFFF;}
	.st10{fill:url(#SVGID_00000117666951178089984660000005566627716634179207_);}
</style>
<g id="bkg">
	<path class="st0" d="M29.4,38H8.6C3.9,38,0,34.1,0,29.4V8.6C0,3.9,3.9,0,8.6,0h20.7c4.8,0,8.6,3.9,8.6,8.6v20.7
		C38,34.1,34.1,38,29.4,38z"/>
</g>
<g class="st1">
	<path class="st2" d="M28.4,16.6c0.5-0.1,0.8-0.1,1-0.5c0.1-0.2,0.3-0.2,0.5-0.1c0.3,0.1,0.6,0.3,0.6,0.7c0.1,0.4,0,0.6-0.4,0.8
		c-0.2,0.1-0.3,0.3-0.2,0.5c0.2,0.5,1.2,0.9,1.8,0.7c0.9-0.3,1.5-0.9,1.9-1.7c0.7-1.2,0.8-2.3,0.1-3.6c-0.4-0.6-0.9-1.2-1.3-1.9
		c-0.7-1.7-2.2-2.5-4-2.3c-2,0.2-3.2,1.4-3.9,3.1c-0.7,1.5-0.7,2.9,0.1,4.3c0.4,0.7,0.6,1.4,0.4,2.2c-0.1,0.7-0.1,1.3,0.4,1.9
		c0.2,0.3,0.2,0.6,0.1,0.9c-0.3,1.4-1.1,2.6-2.3,3.3c-2.3,1.3-4.7,1.8-7.3,1.9c-2.6,0.1-5.2-0.3-7.5-1.6c-0.7-0.4-1.4-0.9-2.2-1.4
		c0.7,1.4,2.6,3.3,4.1,4.2c0.4,0.2,0.5,0.4,0.4,0.8c-0.4,1.5,0.5,2.3,1.4,2.6c0.5,0.1,1,0.1,1.5,0.1c1.3-0.1,1.5-0.4,1.5-1.6
		c0-1,0.3-1.2,1.3-1.1c1.3,0.2,2.7,0.3,4,0c0.4-0.1,0.5,0.1,0.6,0.4c0.1,0.4,0.1,0.8,0.3,1.2c0.1,0.4,0.4,0.7,0.8,0.8
		c1.1,0.1,2.2,0.1,3.2-0.4c0.8-0.3,1.1-1.1,0.8-1.9c-0.2-0.6-0.5-1.1-0.7-1.7c-0.1-0.2-0.2-0.3-0.1-0.5c0.2-0.3,0.3-0.7,0.5-1
		c0.5-0.7,0.9-1.4,1.1-2.3c0.2-0.8,0.4-1.5,0.6-2.3c0.2-0.9,0.7-1.5,1.6-1.7c0.5-0.1,1-0.2,1.5-0.3C29.8,18.3,29.5,17.2,28.4,16.6z
		 M24.3,20.7c-1,0.1-1,0.1-1.5-0.9c-0.2-0.5-0.4-0.9-0.5-1.4c-0.3-0.7-0.3-1.3,0.4-1.9c0.2-0.1,0.3-0.3,0.2-0.6
		c-0.8-1.5-1.7-3-3.1-3.9c-0.3-0.2-0.5-0.2-0.8,0c-1.2,1.1-3.4,1-4.6,0.2C14.2,12.1,14,12,14,11.7c0-0.1,0-0.2-0.2-0.2
		c-0.2,0-0.4,0.1-0.5,0.3c-0.1,0.1,0,0.2,0.1,0.3c0.4,0.5,0.9,0.8,1.5,1c0.7,0.2,0.8,0.4,0.7,1.1c-0.2,1.1-0.5,2.1-0.9,3.2
		c-0.3,0.8-0.6,1.1-1.4,1c-1.6-0.2-3.1-0.7-4.1-2c-0.1-0.1-0.1-0.3-0.3-0.2c-0.2,0.1-0.3,0.3-0.2,0.5c0.1,0.1,0.1,0.2,0.2,0.3
		c0.5,0.5,1.1,0.7,1.7,1c0.6,0.2,0.8,0.6,1,1.2c0.2,1.1-0.1,2.1-0.6,3c-0.2,0.3-0.4,0.4-0.8,0.4c-0.5-0.1-0.9-0.3-1.5-0.4
		c0.7,0.8,1,1.7,0.5,2.7c-0.1,0.3,0.1,0.3,0.2,0.4c0.2,0.1,0.2-0.1,0.3-0.2c0.2-0.8,0.7-1.4,1.5-1.4c1.4,0,3,0.5,3.1,2.4
		c0,0.1-0.1,0.4,0.2,0.4c0.2,0,0.1-0.2,0.2-0.3c0.3-1.6,1.6-1.9,2.7-1.8c0.9,0.1,1.7,0.4,2.1,1.4c0,0.1,0.1,0.3,0.3,0.2
		c-0.2-1,0-1.9,0.9-2.4c0.5-0.3,1.1-0.6,1.8-0.5c0.6,0.1,1.1,0.5,1.5,1c0.2-0.7-0.3-1.2-0.2-1.8C23.7,21.7,24,21.2,24.3,20.7z
		 M13.3,18c0.7-0.1,1-0.2,1.2-0.8c0.2-0.9,0.4-1.7,0.7-2.6c0.2-0.8,0.2-0.8-0.5-1.1C14,13.2,13.3,13,13,12.3
		c-0.2-0.4-0.4-0.4-0.7-0.2C11,12.9,10,14,9.2,15.3c-0.2,0.3-0.2,0.5,0.1,0.8C10.4,17.3,11.8,17.7,13.3,18z M11.3,19.3
		c0.1-0.3-0.2-0.6-0.6-0.7c-0.6-0.3-1.2-0.6-1.8-1c-0.5-0.4-0.6-0.4-0.8,0.2c-0.3,0.8-0.5,1.7-0.7,2.5c-0.1,0.2,0,0.3,0.1,0.4
		c0.7,0.8,1.6,1.2,2.5,1.6c0.2,0.1,0.3,0,0.5-0.2C11.1,21.3,11.2,20.4,11.3,19.3z M11.7,24c-0.8,0-1.3,0.2-1.6,0.7
		c-0.2,0.5-0.1,0.8,0.4,0.9c0.9,0.3,1.9,0.5,2.8,0.7c0.4,0.1,0.5-0.1,0.5-0.5c0-0.3-0.1-0.6-0.2-0.8C13.2,24.4,12.4,24,11.7,24z
		 M9,23.9C9,23,7.9,21.8,7,21.8c-0.8,0-1.1,0.6-0.8,1.3c0.4,0.8,1.1,1.1,1.8,1.5C8.6,24.9,9,24.6,9,23.9z M19.8,25.2
		c0,0.2-0.1,0.5,0.3,0.4c1.1-0.2,2.1-0.6,3.1-1.2c0.2-0.1,0.2-0.2,0.1-0.4c-0.4-0.6-1.4-0.8-2.2-0.5C20.4,23.8,19.8,24.5,19.8,25.2z
		 M16,26.4c0.7,0,1.6-0.1,2.5-0.2c0.5-0.1,0.5-0.3,0.3-0.6c-0.7-1.1-2.7-1.2-3.5-0.1c-0.2,0.2-0.3,0.6-0.2,0.8
		c0.1,0.2,0.4,0.1,0.7,0.1C15.7,26.4,15.8,26.4,16,26.4z M16.4,11.1c-0.6,0-1.3,0-1.9,0.3c-0.2,0.1-0.3,0.2-0.1,0.4
		c0.1,0.1,0.2,0.2,0.3,0.3c0.8,0.6,3.1,0.5,3.9-0.2c0.3-0.2,0.2-0.4-0.1-0.5C17.8,11.2,17.2,11,16.4,11.1z M22.4,17.6
		c0.2,0.7,0.3,1.5,0.6,2.1c0.1,0.2,0.3,0.4,0.5,0.6c0.2,0.2,0.4,0.2,0.5,0c0.2-0.2,0.5-0.3,0.3-0.7c-0.4-0.8-0.8-1.7-1.1-2.6
		c0-0.1-0.1-0.3-0.3-0.2C22.7,17,22.5,17.2,22.4,17.6z M16.5,10.8c0.6,0,1.2,0.1,1.8,0.3c0.1,0,0.3,0.2,0.4,0.1
		c0.1-0.3,0-0.5-0.1-0.8c0-0.2-0.1-0.2-0.3-0.2c-0.8,0.1-1.5-0.1-2.3-0.2c-0.8-0.1-0.8-0.1-0.9,0.7c0,0.2,0,0.2,0.2,0.2
		C15.9,10.8,16.2,10.8,16.5,10.8L16.5,10.8z M24,22.4c0,0.2,0,0.5,0.1,0.7c0.1,0.2,0.2,0.2,0.4,0.1c0.5-0.6,0.8-1.3,0.7-2.1
		c0-0.3-0.2-0.4-0.4-0.1C24.3,21.3,23.9,21.7,24,22.4L24,22.4z M6.7,21.2l0.9,0.2C7.1,20.8,7.1,20.8,6.7,21.2L6.7,21.2z"/>
	<path class="st2" d="M17.8,21.8c0,0.4,0,0.7,0,1.1c0.1,0.5-0.2,0.8-0.6,0.9c-1.6,0.4-3.3,0.4-4.8-0.5c-0.6-0.4-0.8-0.9-0.6-1.5
		c0.2-0.8,0.5-1.7,0.7-2.5c0.1-0.3,0.4-0.4,0.7-0.4c1,0.1,1.9,0.3,2.9,0.4c0.2,0,0.3,0,0.5-0.1c0.6-0.2,1.1,0.2,1.3,0.8
		C17.9,20.7,17.9,21.2,17.8,21.8z M17.5,21.7c0-0.5,0-0.8,0-1.2c0.1-0.6-0.2-0.9-0.8-0.7c-0.3,0.1-0.6,0.1-0.8,0
		c-0.9-0.2-1.8-0.3-2.7-0.5c-0.3,0-0.5-0.1-0.6,0.3c-0.2,0.8-0.4,1.6-0.6,2.3c-0.1,0.4,0,0.7,0.3,0.9c1.5,1.2,3.1,1.3,4.8,0.7
		c0.4-0.1,0.5-0.5,0.5-0.9C17.6,22.3,17.6,21.9,17.5,21.7z"/>
	
		<linearGradient id="SVGID_1_" gradientUnits="userSpaceOnUse" x1="6.1072" y1="19.6221" x2="34.2196" y2="19.6221" gradientTransform="matrix(1 0 0 -1 0 40)">
		<stop  offset="0" style="stop-color:#326DE6"/>
		<stop  offset="1" style="stop-color:#10FFC6"/>
	</linearGradient>
	<path class="st3" d="M28.5,16.6c0,0,0.1,0,0.1-0.1c0.3,0,0.6-0.2,0.8-0.5c0.1-0.2,0.3-0.2,0.5-0.1c0.4,0.1,0.6,0.3,0.7,0.7
		c0.1,0.4-0.1,0.6-0.4,0.8c-0.3,0.2-0.3,0.4-0.1,0.7c0.5,0.5,1.3,0.7,1.9,0.4c1.2-0.6,1.8-1.7,2.1-2.9c0-0.2,0.1-0.4,0-0.7
		c-0.1-0.8-0.4-1.4-0.9-2c-0.4-0.5-0.7-1-1-1.6c-0.5-1-1.3-1.8-2.5-2c-1.5-0.3-2.8,0-3.9,1c-0.8,0.7-1.3,1.7-1.7,2.7
		c-0.4,1.3-0.3,2.5,0.4,3.6c0.4,0.7,0.6,1.4,0.4,2.3c-0.1,0.6-0.1,1.3,0.4,1.8c0.1,0.2,0.2,0.4,0.2,0.6c-0.2,1.5-1,2.7-2.4,3.5
		c-3.2,1.8-6.6,2.2-10.1,1.8c-2.3-0.3-4.5-1.1-6.4-2.5c-0.1-0.1-0.2-0.1-0.3-0.2c0,0.1,0.1,0.2,0.1,0.3c1,1.4,2.2,2.7,3.7,3.6
		c0.5,0.3,0.5,0.5,0.4,1c-0.3,1.2,0.3,2.2,1.5,2.5c0.7,0.1,1.3,0.1,2,0c0.6-0.1,0.8-0.3,0.8-0.9c0-0.3,0-0.6,0.1-0.9
		c0.1-0.6,0.4-0.9,1-0.8c0.1,0,0.3,0,0.4,0.1c1.3,0.2,2.5,0.2,3.8,0c0.4-0.1,0.6,0,0.7,0.5c0.1,0.4,0.2,0.8,0.3,1.2
		c0.1,0.4,0.3,0.7,0.7,0.7c1.1,0.2,2.2,0.1,3.2-0.4c0.9-0.4,1.2-1.1,0.8-2c-0.2-0.6-0.5-1.1-0.7-1.7c-0.1-0.1-0.1-0.3-0.1-0.4
		c0.2-0.4,0.3-0.7,0.5-1.1c0.5-0.7,0.9-1.4,1.1-2.3c0.2-0.8,0.4-1.6,0.6-2.4c0.2-0.9,0.8-1.4,1.7-1.6c0.3-0.1,0.7-0.1,1-0.2
		c0.2,0,0.3-0.1,0.1-0.3c-0.2-0.3-0.4-0.5-0.5-0.8c-0.3-0.5-0.6-0.9-1.1-1.3C28.6,16.7,28.5,16.6,28.5,16.6z M8.8,22.3
		C8.8,22.4,8.8,22.4,8.8,22.3c0.5,0.8,0.8,1.7,0.3,2.6c-0.1,0.2,0,0.2,0.2,0.3c0.1,0.1,0.2,0,0.3-0.1c0-0.1,0-0.1,0.1-0.2
		c0.3-0.9,0.9-1.3,1.9-1.2c0.1,0,0.2,0,0.3,0c1.5,0.2,2.4,1.1,2.4,2.4c0,0.1,0,0.2,0.1,0.2c0.1,0,0.1-0.1,0.2-0.2
		c0.3-1.1,0.9-1.7,1.9-1.8c0.3,0,0.6,0,0.9,0c0.9,0.1,1.7,0.5,2,1.4c0,0,0,0.1,0.1,0.1c0.1-0.1,0-0.2,0-0.3c0-0.6,0.1-1.1,0.5-1.6
		c1-1.2,2.5-1.2,3.6-0.2c0,0,0.1,0.1,0.1,0.1c0,0,0.1,0.1,0.1,0.1c0.1,0,0.1-0.1,0.1-0.2c0-0.2-0.1-0.5-0.1-0.7
		c-0.1-0.4-0.1-0.8,0-1.2c0.1-0.3,0.2-0.5,0.3-0.8c0-0.1,0.1-0.1,0.1-0.2c-0.1-0.1-0.1,0-0.2,0c-0.5,0-0.7-0.1-1-0.5
		c-0.3-0.5-0.4-1.1-0.7-1.6c-0.3-0.8-0.3-1.5,0.4-2.1c0.2-0.1,0.2-0.3,0.1-0.6c-0.1-0.2-0.2-0.5-0.4-0.7c-0.7-1.2-1.5-2.3-2.6-3
		c-0.4-0.2-0.5-0.3-0.9,0c-1.2,1-3.3,1-4.6,0.2c-0.2-0.1-0.3-0.3-0.4-0.5c-0.1-0.3-0.2-0.3-0.4-0.1c-0.2,0.2-0.3,0.3-0.1,0.5
		c0.4,0.5,1,0.8,1.6,1c0.5,0.2,0.6,0.4,0.6,0.8c-0.2,1.3-0.5,2.6-1,3.8c-0.2,0.5-0.7,0.8-1.2,0.7c-1.7-0.2-3.2-0.7-4.3-2.1
		c-0.1-0.1-0.2-0.1-0.3,0c-0.2,0.2-0.2,0.3,0,0.6c0.5,0.5,1.1,0.8,1.7,1c0.7,0.3,1,0.8,1.1,1.5c0.2,1-0.1,1.8-0.6,2.6
		c-0.3,0.7-0.6,0.8-1.3,0.6c-0.2,0-0.3-0.1-0.5-0.2C9.1,22.4,9,22.3,8.8,22.3L8.8,22.3z M13.2,17.9c0.7,0,1.1-0.2,1.2-0.7
		c0.3-1,0.5-2,0.8-3c0.1-0.3,0-0.5-0.3-0.6c-0.4-0.2-0.7-0.3-1.1-0.5c-0.3-0.1-0.6-0.4-0.8-0.7c-0.2-0.5-0.4-0.5-0.8-0.2
		c-1.2,0.8-2.2,1.8-2.9,3.1c-0.2,0.4-0.2,0.6,0.1,0.8C10.5,17.3,11.9,17.7,13.2,17.9L13.2,17.9z M11.3,19.2c0-0.3-0.3-0.5-0.5-0.6
		c-0.7-0.3-1.3-0.7-1.9-1.1c-0.4-0.3-0.5-0.3-0.7,0.2c-0.2,0.8-0.5,1.6-0.7,2.4c-0.1,0.2,0,0.4,0.1,0.6c0.5,0.6,1.1,1,1.8,1.3
		c0.9,0.4,1.1,0.3,1.5-0.6C11.2,20.8,11.2,20,11.3,19.2z M11.6,24.1c-0.7,0-1.1,0.2-1.4,0.6c-0.3,0.5-0.2,0.8,0.3,1
		c0.9,0.3,1.9,0.5,2.8,0.7c0.3,0,0.4-0.1,0.4-0.3c0-0.3,0-0.6-0.2-0.9C13.1,24.4,12.4,24.1,11.6,24.1L11.6,24.1z M7,21.9
		c-0.7,0-1,0.5-0.8,1.1c0.1,0.2,0.2,0.4,0.3,0.5c0.4,0.6,1.1,0.8,1.7,1.1c0.5,0.2,0.8,0,0.9-0.5c0-0.1,0-0.2,0-0.3
		c-0.3-0.9-0.9-1.5-1.8-1.9C7.1,21.9,7.1,21.9,7,21.9z M19.9,25.2c0,0.4,0.1,0.4,0.4,0.4c1-0.2,2-0.6,2.8-1.1
		c0.3-0.2,0.3-0.3,0.1-0.6c-0.5-0.4-1-0.5-1.6-0.4C20.7,23.6,19.9,24.4,19.9,25.2L19.9,25.2z M15.9,26.4L15.9,26.4
		c0.6,0,1.3-0.1,1.9-0.1c0.2,0,0.4,0,0.6-0.1c0.5-0.1,0.5-0.2,0.3-0.6c-0.6-0.8-2-1.1-2.9-0.5c-0.3,0.2-0.6,0.5-0.7,0.9
		c-0.1,0.3,0,0.5,0.3,0.5C15.6,26.4,15.8,26.4,15.9,26.4L15.9,26.4z M16.4,12.4c0.5,0,1,0,1.4-0.2c0.3-0.1,0.6-0.2,0.8-0.4
		c0.2-0.2,0.2-0.3-0.1-0.4c-1.2-0.4-2.5-0.4-3.7-0.1c-0.1,0-0.1,0-0.2,0.1c-0.3,0.1-0.3,0.2-0.1,0.4c0.2,0.2,0.4,0.3,0.7,0.4
		C15.6,12.4,16,12.4,16.4,12.4L16.4,12.4z M24.5,19.9c0-0.1,0-0.2-0.1-0.3c-0.3-0.6-0.6-1.3-0.9-1.9c-0.1-0.2-0.1-0.4-0.2-0.6
		c0-0.1-0.1-0.2-0.3-0.1c-0.3,0.1-0.6,0.5-0.5,0.8c0.1,0.4,0.2,0.8,0.3,1.2c0.1,0.5,0.4,0.9,0.7,1.2c0.1,0.1,0.3,0.2,0.4,0.1
		C24.2,20.3,24.4,20.1,24.5,19.9L24.5,19.9z M16.6,10.8c0.6,0,1.3,0.1,1.9,0.3c0.1,0,0.3,0.1,0.3-0.1c0.1-0.3,0-0.5-0.1-0.7
		c-0.1-0.2-0.2-0.1-0.4-0.1c-0.3,0-0.6,0-0.9,0C16.9,10.1,16.5,10,16,10c-0.5-0.1-0.6,0.1-0.6,0.6c0,0.2,0.1,0.3,0.3,0.3
		C16,10.8,16.3,10.8,16.6,10.8L16.6,10.8z M25.2,21.4c0-0.1,0-0.2,0-0.3c-0.1-0.3-0.2-0.3-0.4-0.1c-0.2,0.2-0.4,0.5-0.6,0.8
		C24,22.1,24,22.6,24.1,23c0.1,0.3,0.3,0.3,0.4,0.1C24.9,22.6,25.2,22,25.2,21.4L25.2,21.4z"/>
	<path class="st2" d="M30.2,13.5c0-0.4,0.1-0.7,0.4-0.6c0.3,0,0.4,0.3,0.4,0.6c0,0.3-0.1,0.6-0.4,0.6C30.3,14,30.2,13.7,30.2,13.5z"
		/>
	<path class="st2" d="M17.5,18.5c-0.5,0.1-0.9,0-1.4-0.1c-0.5-0.2-0.7-0.5-0.6-1c0.2-1,0.3-2,0.5-3.1c0.1-0.7,0.3-0.8,1-0.9
		c0.8-0.1,1.7-0.1,2.4-0.8c0.1-0.1,0.3-0.1,0.4,0c0.2,0.1,0.5,0.2,0.6,0.4c0.7,0.8,1.4,1.6,1.8,2.7c0.1,0.2,0,0.5-0.1,0.7
		c-0.9,1.3-2.2,1.8-3.7,2C18,18.5,17.8,18.5,17.5,18.5z M15.8,17.4c-0.2,0.4,0.2,0.7,0.8,0.8c1.6,0.2,3-0.3,4.4-1
		c0.7-0.4,1-1,0.6-1.8c-0.4-0.8-0.9-1.5-1.5-2c-0.2-0.2-0.4-0.4-0.7-0.2c-0.7,0.5-1.5,0.7-2.4,0.6c-0.4,0-0.5,0.1-0.6,0.5
		C16.1,15.2,16,16.3,15.8,17.4z"/>
	<path class="st2" d="M18.3,21.2c0-0.5,0-1,0-1.4c0-0.3,0.2-0.6,0.5-0.7c0.7-0.2,1.2-0.7,1.9-1c0.6-0.3,1.1-0.2,1.4,0.4
		c0.4,0.7,0.8,1.4,1,2.1c0.3,0.9,0.1,1.4-0.7,1.8c-0.6,0.3-1.2,0.5-1.9,0.7c-0.4,0.1-0.8,0.3-1.2,0.4c-0.5,0.2-0.8,0.1-0.9-0.5
		C18.2,22.5,18.2,21.8,18.3,21.2z M18.6,21.3c0,0.6-0.1,1.2,0,1.8c0.1,0.3,0.2,0.3,0.4,0.2c0.3-0.1,0.7-0.3,1-0.4
		c0.8-0.3,1.7-0.5,2.4-1c0.3-0.2,0.4-0.5,0.3-0.8c-0.3-0.9-0.9-1.7-1.2-2.6c-0.1-0.3-0.4-0.2-0.6-0.1c-0.3,0.1-0.7,0.3-1,0.5
		c-0.5,0.3-1.2,0.4-1.4,0.8C18.4,20.1,18.6,20.7,18.6,21.3z"/>
	<path class="st2" d="M27.1,20.4L27.1,20.4l-2-8.8c-0.1-0.5-0.4-0.8-0.8-1l-8.2-3.9c-0.4-0.2-0.9-0.2-1.4,0l-8.2,3.9
		c-0.4,0.2-0.7,0.6-0.8,1l-2,8.8c0,0.2,0,0.5,0,0.7c0,0.1,0,0.1,0.1,0.2c0,0.1,0.1,0.2,0.2,0.3c0,0,0.1,0.1,0.1,0.1l5.6,7
		c0,0,0.1,0.1,0.1,0.1C9.8,28.9,9.9,29,10,29c0.1,0.1,0.3,0.2,0.4,0.2c0.1,0,0.3,0.1,0.4,0.1H11l9,0c0.1,0,0.1,0,0.2,0
		c0.1,0,0.2,0,0.2,0c0.1,0,0.1,0,0.2-0.1c0,0,0.1,0,0.1-0.1c0.1,0,0.1-0.1,0.2-0.1c0.1-0.1,0.3-0.2,0.4-0.3l0.2-0.2l5.5-6.8
		c0.1-0.1,0.2-0.3,0.2-0.4c0-0.1,0-0.1,0.1-0.2C27.2,20.8,27.2,20.6,27.1,20.4z M15.3,9.5c0.1,0,0.1,0,0.2,0
		C15.4,9.5,15.4,9.5,15.3,9.5z"/>
	<path class="st4" d="M23.2,19.3c0,0-0.1,0-0.1,0c-0.2,0-0.3,0-0.5,0c-0.3,0-0.6-0.1-0.9-0.1c-0.1,0-0.2-0.1-0.2-0.2l-0.2-0.1
		c0.2-1.5-0.1-3-1-4.3c0,0,0.1-0.1,0.2-0.2c0-0.1,0-0.2,0.1-0.3c0.2-0.2,0.5-0.4,0.7-0.5c0.1-0.1,0.3-0.1,0.4-0.2
		c0,0,0.1-0.1,0.1-0.1c0.2-0.1,0.3-0.4,0.1-0.7c-0.1-0.2-0.4-0.3-0.7-0.1c0,0-0.1,0-0.1,0.1c0,0-0.1,0.1-0.1,0.1
		c-0.1,0.1-0.2,0.2-0.3,0.3c-0.2,0.2-0.4,0.4-0.6,0.6c-0.1,0-0.2,0-0.3,0l-0.2,0.1c-1-1.1-2.5-1.8-4-1.9c0-0.1,0-0.2,0-0.2
		c-0.1-0.1-0.1-0.1-0.2-0.2c0-0.3,0-0.6,0.1-0.9c0-0.1,0.1-0.3,0.1-0.5c0,0,0-0.1,0-0.1c0-0.3-0.2-0.5-0.4-0.5
		c-0.3,0-0.5,0.2-0.5,0.4c0,0,0,0.1,0,0.1c0,0,0,0,0,0c0,0,0,0.1,0,0.1c0,0.2,0,0.3,0.1,0.5c0,0.3,0.1,0.6,0.1,0.9
		c0,0.1-0.1,0.2-0.2,0.2l0,0.2c-0.3,0-0.6,0.1-0.9,0.1c-1.2,0.3-2.3,0.9-3.1,1.8c-0.1,0-0.1-0.1-0.2-0.1c-0.1,0-0.2,0-0.3,0
		C10,13.4,9.8,13.2,9.6,13c-0.1-0.1-0.2-0.2-0.3-0.3c0,0-0.1-0.1-0.1-0.1c-0.1-0.1-0.2-0.1-0.3-0.1c-0.1,0-0.3,0.1-0.4,0.2
		c-0.2,0.2-0.1,0.5,0.1,0.7l0,0c0,0,0.1,0.1,0.1,0.1c0.1,0.1,0.3,0.2,0.4,0.2c0.3,0.1,0.5,0.3,0.7,0.5c0.1,0.1,0.1,0.2,0.1,0.3
		l0.2,0.1c-0.8,1.3-1.2,2.8-1,4.3l-0.2,0.1c-0.1,0.1-0.1,0.2-0.2,0.2c-0.3,0.1-0.6,0.1-0.9,0.1c-0.2,0-0.3,0-0.5,0c0,0-0.1,0-0.1,0
		l0,0l0,0c-0.3,0-0.4,0.3-0.4,0.5c0,0.3,0.3,0.4,0.5,0.4c0,0,0.1,0,0.1,0l0,0c0,0,0,0,0,0c0,0,0.1,0,0.1,0c0.1,0,0.3-0.1,0.4-0.2
		c0.3-0.1,0.5-0.2,0.8-0.2c0.1,0,0.2,0,0.3,0.1l0.2,0c0.5,1.4,1.4,2.7,2.8,3.4L12,23.5c0,0.1,0.1,0.2,0,0.3
		c-0.1,0.3-0.3,0.5-0.4,0.8c-0.1,0.1-0.2,0.2-0.3,0.4c0,0,0,0.1-0.1,0.1c-0.1,0.2-0.1,0.5,0.2,0.7c0.2,0.1,0.5,0.1,0.7-0.2
		c0,0,0-0.1,0-0.1l0,0v0c0,0,0-0.1,0.1-0.1c0.1-0.1,0.1-0.3,0.1-0.4c0.1-0.3,0.2-0.6,0.4-0.9c0.1-0.1,0.1-0.1,0.2-0.1l0.1-0.2
		c1.4,0.5,3,0.5,4.4,0c0,0.1,0.1,0.2,0.1,0.2c0.1,0,0.2,0.1,0.2,0.1c0.1,0.3,0.2,0.5,0.3,0.8c0,0.1,0.1,0.3,0.1,0.4
		c0,0,0,0.1,0.1,0.1c0.1,0.2,0.4,0.4,0.6,0.3c0.2-0.1,0.4-0.4,0.3-0.6c0,0,0-0.1,0-0.1c0,0,0-0.1-0.1-0.1c-0.1-0.1-0.2-0.3-0.3-0.4
		c-0.2-0.2-0.3-0.5-0.4-0.8c0-0.1,0-0.2,0-0.3c0-0.1-0.1-0.1-0.1-0.2c1.3-0.8,2.3-2,2.8-3.5c0.1,0,0.2,0,0.2,0
		c0.1-0.1,0.2-0.1,0.3-0.1c0.3,0.1,0.6,0.1,0.8,0.2c0.1,0.1,0.3,0.1,0.4,0.2c0,0,0.1,0,0.1,0c0,0,0,0,0,0l0,0
		c0.3,0.1,0.5-0.1,0.6-0.3S23.6,19.4,23.2,19.3C23.3,19.3,23.3,19.3,23.2,19.3L23.2,19.3z M18.7,14.4l-2,1.4l0,0
		c-0.2,0.1-0.5,0.1-0.6-0.1c0-0.1-0.1-0.1-0.1-0.2l0,0l-0.1-2.5C16.9,13.2,17.9,13.7,18.7,14.4z M14.9,17.2h0.8l0.5,0.6l-0.2,0.7
		l-0.7,0.3l-0.7-0.3l-0.2-0.7L14.9,17.2z M14.1,13.2c0.2,0,0.3-0.1,0.5-0.1l-0.1,2.5l0,0c0,0.2-0.2,0.4-0.4,0.4
		c-0.1,0-0.2,0-0.2-0.1l0,0l-2.1-1.5C12.4,13.8,13.2,13.4,14.1,13.2L14.1,13.2z M11,15.4l1.9,1.7l0,0c0.2,0.2,0.2,0.4,0,0.6
		c-0.1,0.1-0.1,0.1-0.2,0.1l0,0l-2.4,0.7C10.2,17.4,10.5,16.3,11,15.4L11,15.4z M13.5,19.8l-1,2.3c-0.9-0.6-1.6-1.5-2-2.5l2.5-0.4
		l0,0c0,0,0.1,0,0.1,0c0.2,0,0.4,0.2,0.4,0.4C13.6,19.7,13.5,19.8,13.5,19.8L13.5,19.8z M16.4,22.8c-0.9,0.2-1.8,0.2-2.7-0.1
		l1.2-2.2h0c0.1-0.2,0.4-0.3,0.6-0.2c0.1,0,0.1,0.1,0.2,0.2h0l1.2,2.2C16.7,22.7,16.5,22.8,16.4,22.8L16.4,22.8z M17.9,22.2l-1-2.3
		l0,0c-0.1-0.2,0-0.4,0.2-0.5c0.1,0,0.1,0,0.2,0c0,0,0.1,0,0.1,0l0,0l2.5,0.4C19.5,20.7,18.8,21.6,17.9,22.2L17.9,22.2z M20.2,18.5
		l-2.4-0.7l0,0c-0.2-0.1-0.4-0.3-0.3-0.5c0-0.1,0.1-0.2,0.1-0.2l0,0l1.9-1.7C20,16.3,20.3,17.4,20.2,18.5L20.2,18.5z"/>
</g>
<g>
	
		<linearGradient id="SVGID_00000073685972197979368220000018069600864036652214_" gradientUnits="userSpaceOnUse" x1="21.2123" y1="27.542" x2="25.4696" y2="27.542" gradientTransform="matrix(1 0 0 -1 0 40)">
		<stop  offset="0" style="stop-color:#326DE6"/>
		<stop  offset="1" style="stop-color:#10FFC6"/>
	</linearGradient>
	<path style="fill:url(#SVGID_00000073685972197979368220000018069600864036652214_);" d="M21.2,11.4c0,0,0.9-1.5,1.6-1.3
		c0.7,0.2,1.5,0.1,2,1.4c0.4,0.9,0.7,0.8,0.6,1.6c-0.1,1.1-1,1.5-1,1.5l-1.9,0.3L21.2,11.4z"/>
	
		<linearGradient id="SVGID_00000125568136837513744900000012708012149424890280_" gradientUnits="userSpaceOnUse" x1="19.0018" y1="34.0129" x2="22.2742" y2="34.0129" gradientTransform="matrix(1 0 0 -1 0 40)">
		<stop  offset="0" style="stop-color:#326DE6"/>
		<stop  offset="1" style="stop-color:#10FFC6"/>
	</linearGradient>
	<path style="fill:url(#SVGID_00000125568136837513744900000012708012149424890280_);" d="M19,5.2c0,0,0.9-1.3,1.4-1.2
		c0.5,0.2,1.1,0,1.5,0.9c0.3,0.7,0.5,0.6,0.4,1.2c-0.1,0.8-1,1.1-1,1.1l-0.8,0.3L20,7.9L19,5.2z"/>
	<path class="st7" d="M18.7,9.1c0.1,0,0.1-0.1,0-0.1c0,0-0.1-0.1-0.1-0.1c-0.1-0.1-0.3-0.1-0.4-0.1c-0.1,0-0.2,0-0.3,0.1l-0.1,0.6
		c0.1,0,0.3-0.1,0.4-0.1C18.4,9.2,18.5,9.2,18.7,9.1z"/>
	<path class="st7" d="M19.1,7.5C19,7.4,19,7.3,18.9,7.2c-0.1-0.2-0.2-0.4-0.2-0.5c0,0,0-0.1-0.1-0.1c-0.1,0-0.2,0.1-0.2,0.2
		c0,0,0,0,0,0c0,0.1,0.1,0.3,0.1,0.4c0,0.1,0.1,0.3,0.2,0.4c0.1,0.1,0.2,0.1,0.3,0C19.1,7.6,19.1,7.6,19.1,7.5z"/>
	<path class="st7" d="M18.5,8.6c0.1,0.1,0.2,0.1,0.3,0.2c0,0,0,0,0,0c0,0,0,0,0-0.1c0-0.1,0-0.2-0.1-0.3c0-0.1,0-0.2,0-0.3
		C18.9,8.1,18.9,8,19,8c0,0,0,0,0-0.1c0,0-0.1,0-0.1,0c-0.2,0-0.3,0-0.3-0.2c-0.1-0.2-0.2-0.4-0.2-0.6c-0.1-0.2-0.1-0.4,0.2-0.6
		c0.1,0,0.1-0.1,0-0.2c0,0,0,0,0,0c-0.1-0.2-0.2-0.5-0.4-0.7l0,0.2c0.1,0.1,0.1,0.2,0.2,0.4c0,0.1,0,0.2-0.1,0.3l-0.1-0.1
		c0,0.1-0.1,0.1-0.1,0.2L18,7c0.1,0,0.2,0,0.2,0.1c0.2,0.3,0.3,0.5,0.4,0.9c0,0.1,0,0.3-0.1,0.4c-0.2,0.1-0.4,0.2-0.6,0.3l0,0.1
		c0,0,0.1,0,0.1,0C18.1,8.6,18.3,8.6,18.5,8.6z"/>
	<path class="st7" d="M18.2,6.2c0,0,0-0.1-0.1-0.1L18.2,6.2l0,0.2C18.2,6.4,18.2,6.3,18.2,6.2z"/>
	<path class="st7" d="M18.5,8.3c0.1-0.1,0.1-0.2,0.1-0.3c0-0.1-0.1-0.2-0.1-0.3c-0.1-0.2-0.2-0.4-0.3-0.5c0-0.1-0.1-0.1-0.2-0.1
		l0,0.2l0,1.2C18.2,8.4,18.3,8.3,18.5,8.3z"/>
	<path class="st7" d="M19.1,8.6c0.1-0.1,0.2-0.3,0.2-0.5c0,0,0-0.1,0-0.1c0,0,0,0,0,0c0-0.1-0.1-0.1-0.1,0C19.1,8,19,8.1,19,8.2
		c-0.1,0.1-0.1,0.3,0,0.4C19,8.7,19.1,8.7,19.1,8.6z"/>
	<path class="st7" d="M21.9,5.3c-0.1-0.1-0.2-0.3-0.3-0.5c-0.1-0.2-0.3-0.4-0.5-0.5c-0.4-0.2-0.8-0.2-1.3,0
		c-0.3,0.1-0.5,0.4-0.7,0.7c-0.3,0.5-0.4,1,0,1.6c0.1,0.2,0.2,0.5,0.1,0.7c-0.1,0.2,0,0.4,0.1,0.6c0.1,0.1,0.1,0.2,0.1,0.3
		c-0.1,0.5-0.4,0.9-0.8,1.1l-0.9,1.2c0.1,0,0.2,0,0.2,0.1c0,0.1,0,0.3,0.1,0.4c0,0.2,0.2,0.3,0.3,0.3c0,0,0,0,0.1,0
		c0.3,0,0.6,0,0.9-0.1c0.3-0.1,0.4-0.4,0.3-0.6c-0.1-0.2-0.2-0.4-0.2-0.6c0,0,0-0.1,0-0.1c0-0.1,0.1-0.2,0.2-0.4
		c0.2-0.2,0.3-0.4,0.3-0.7C19.9,8.5,20,8.2,20,7.9c0.1-0.3,0.3-0.5,0.5-0.5c0.1,0,0.3-0.1,0.4-0.1c0.1,0,0.1,0,0-0.1
		c-0.1-0.1-0.1-0.1-0.1-0.2c-0.1-0.2-0.2-0.4-0.4-0.5c0,0,0,0,0,0c0,0,0,0,0,0c0.1,0,0.2-0.1,0.2-0.2c0-0.1,0.1-0.1,0.1,0
		c0.1,0,0.2,0.1,0.2,0.2c0,0.1,0,0.2-0.1,0.3c-0.1,0.1-0.1,0.1,0,0.2c0.1,0.2,0.4,0.2,0.6,0.2c0.2-0.1,0.4-0.3,0.5-0.5
		c0.2-0.3,0.3-0.6,0.2-0.9C22.2,5.6,22.1,5.5,21.9,5.3z M21.2,5.7c0,0-0.1,0.1-0.1,0.1c0,0-0.1,0-0.1-0.1c0,0,0-0.1,0-0.1
		c0,0,0-0.1,0-0.1c0,0,0-0.1,0.1-0.1c0,0,0.1,0,0.1,0.1C21.2,5.5,21.2,5.6,21.2,5.7z"/>
	<path d="M17.6,9.3c0,0.1,0,0.1,0.1,0.1c0,0,0,0,0.1,0l0.1-0.6C17.7,9,17.6,9.1,17.6,9.3z"/>
	<path class="st8" d="M21.9,5.1c-0.1-0.1-0.2-0.3-0.3-0.4c0-0.1-0.1-0.1-0.1-0.2c-0.5-0.5-1.3-0.6-1.9-0.2c-0.3,0.2-0.4,0.5-0.6,0.8
		c-0.2,0.5-0.2,1,0,1.5c0,0.1,0.1,0.2,0.1,0.3c0.1,0.1,0.1,0.3,0,0.4c0,0.1-0.1,0.1-0.1,0C19,7.2,19,7.1,18.9,7
		c-0.1-0.4-0.3-0.8-0.5-1.2c-0.1-0.1-0.1-0.2-0.2-0.3l0,0.2c0.2,0.2,0.3,0.4,0.4,0.7c0,0.1,0,0.1,0,0.2c0,0,0,0,0,0
		c-0.2,0.2-0.2,0.4-0.2,0.6c0.1,0.2,0.1,0.4,0.2,0.6c0.1,0.1,0.2,0.2,0.3,0.2c0,0,0.1,0,0.1,0c0,0,0,0.1,0,0.1
		c-0.1,0.1-0.1,0.2-0.1,0.3c0,0.1,0,0.2,0,0.3c0,0.1,0,0.2,0.1,0.3c0,0,0,0,0,0.1c0,0,0,0,0,0c-0.1-0.1-0.2-0.2-0.3-0.2
		c-0.2-0.1-0.4-0.1-0.6,0c0,0-0.1,0-0.1,0l0,0.2c0.1-0.1,0.2-0.1,0.3-0.1c0.2,0,0.3,0,0.4,0.1c0,0,0.1,0,0.1,0.1
		c0.1,0.1,0.1,0.1,0,0.1c-0.1,0.1-0.3,0.2-0.4,0.2c-0.1,0.1-0.3,0.1-0.4,0.1l-0.1,1.1c0.1,0,0.1,0,0.1,0.1c0,0.1,0.1,0.2,0.1,0.3
		c0.1,0.3,0.2,0.4,0.5,0.4c0.3,0,0.7,0,1-0.2c0.3-0.1,0.4-0.5,0.3-0.8c0-0.1-0.1-0.2-0.2-0.3c0-0.1-0.1-0.1-0.1-0.2
		c0-0.1,0-0.2,0.1-0.3c0.2-0.2,0.3-0.4,0.4-0.7c0.1-0.2,0.1-0.5,0.2-0.7c0-0.4,0.3-0.5,0.6-0.6c0.2,0,0.3-0.1,0.5-0.1
		c0.2-0.1,0.4-0.2,0.6-0.3c0.3-0.2,0.5-0.5,0.5-0.8c0,0,0-0.1,0-0.1V5.9C22.3,5.6,22.1,5.3,21.9,5.1z M18.7,7.7
		c-0.1-0.1-0.2-0.2-0.2-0.4c0-0.1-0.1-0.3-0.1-0.4c0,0,0,0,0,0c0-0.1,0.1-0.2,0.2-0.2c0.1,0,0.1,0,0.1,0.1c0.1,0.2,0.1,0.4,0.2,0.5
		c0,0.1,0.1,0.2,0.1,0.3c0,0.1,0,0.1,0,0.2C18.9,7.8,18.9,7.8,18.7,7.7z M19,8.2c0-0.1,0.1-0.2,0.2-0.3c0.1-0.1,0.1,0,0.1,0
		c0,0,0,0,0,0c0,0,0,0.1,0,0.1c0,0.2-0.1,0.4-0.2,0.5c0,0.1-0.1,0-0.1,0C18.9,8.5,18.9,8.3,19,8.2L19,8.2z M22,6.7
		c-0.1,0.2-0.3,0.4-0.5,0.5c-0.2,0.1-0.4,0-0.6-0.2c-0.1-0.1-0.1-0.1,0-0.2c0.1-0.1,0.1-0.2,0.1-0.3c0-0.1-0.1-0.2-0.2-0.2
		c-0.1,0-0.1,0-0.1,0c-0.1,0.1-0.1,0.1-0.2,0.2c0,0,0,0,0,0c0,0,0,0,0,0c0.2,0.1,0.3,0.3,0.4,0.5c0,0.1,0.1,0.1,0.1,0.2
		c0,0.1,0,0.1,0,0.1c-0.1,0-0.3,0.1-0.4,0.1c-0.3,0-0.5,0.2-0.5,0.5c-0.1,0.3-0.1,0.5-0.2,0.8c-0.1,0.2-0.2,0.5-0.3,0.7
		c-0.1,0.1-0.1,0.2-0.2,0.4c0,0,0,0.1,0,0.1c0.1,0.2,0.2,0.4,0.2,0.6c0.1,0.3,0,0.5-0.3,0.6c-0.3,0.1-0.6,0.2-0.9,0.1c0,0,0,0-0.1,0
		c-0.2,0-0.3-0.1-0.3-0.3c0-0.1-0.1-0.3-0.1-0.4c0-0.1-0.1-0.2-0.2-0.1l0.9-1.2c0.4-0.2,0.7-0.6,0.8-1.1c0-0.1,0-0.2-0.1-0.3
		c-0.1-0.2-0.2-0.4-0.1-0.6c0.1-0.2,0-0.5-0.1-0.7c-0.3-0.5-0.3-1.1,0-1.6c0.2-0.3,0.4-0.6,0.7-0.7c0.4-0.2,0.8-0.2,1.3,0
		c0.2,0.1,0.4,0.3,0.5,0.5c0.1,0.2,0.2,0.3,0.3,0.5c0.1,0.1,0.2,0.3,0.3,0.5C22.3,6.1,22.2,6.4,22,6.7z"/>
	<path class="st8" d="M21.1,5.3C21,5.3,21,5.4,21.1,5.3C21,5.4,21,5.5,21,5.5c0,0,0,0.1,0,0.1c0,0,0.1,0.1,0.1,0.1
		c0,0,0.1,0,0.1-0.1c0-0.1,0-0.2,0-0.3C21.2,5.3,21.1,5.3,21.1,5.3z"/>
	<path d="M18,7.1c0.1,0,0.1,0,0.2,0.1c0.1,0.2,0.2,0.4,0.3,0.5c0,0.1,0.1,0.2,0.1,0.3c0,0.1,0,0.2-0.1,0.3c-0.1,0.1-0.3,0.2-0.4,0.2
		l0-1.2L18,7.1z"/>
	<path class="st8" d="M18.8,10.6c0.4,0.3,0.8,0.6,1,1c0.4,0.6,0.6,1.3,0.8,2c0,0.2,0.1,0.4,0.2,0.5c0,0.1,0.1,0.2,0.2,0.1
		c0.1,0,0.1-0.1,0.1-0.2c0-0.3,0-0.5-0.1-0.7c-0.1-0.3-0.2-0.6-0.1-1c0.1,0.3,0.1,0.7,0.2,1c0.2,0.2,0.2,0.6,0.1,0.8
		c-0.1,0.3-0.1,0.7,0,1c0.1,0.1,0,0.3,0,0.5c-0.2,0.5-0.6,1-1.1,1.2c-2.3,0.9-4.6,0.8-6.7-0.6c-0.3-0.2-0.5-0.4-0.9-0.6
		c0.4,0.8,0.9,1.5,1.5,2c0.2,0.1,0.2,0.3,0.2,0.5c-0.2,0.8,0.4,1.4,1.2,1.2c0.1,0,0.2-0.1,0.3-0.1c0.3,0,0.4-0.2,0.4-0.4
		c0.1-0.6,0.2-0.6,0.7-0.5c0.5,0.1,1,0.2,1.5,0.1c0.3-0.1,0.5,0.1,0.4,0.4c0,0.4,0.1,0.6,0.5,0.7c0.5,0.1,1,0.1,1.4-0.1
		c0.3-0.1,0.5-0.4,0.4-0.8c-0.1-0.2-0.1-0.4-0.2-0.6c-0.2-0.4-0.1-0.6,0.2-0.9c0.3-0.3,0.5-0.6,0.6-1c0.1-0.3,0.2-0.6,0.4-0.9
		c0.1-0.4,0.4-0.6,0.8-0.7c0.2,0,0.4,0,0.6-0.1c-0.1-0.1-0.1-0.3-0.2-0.4l0,0c0.2-0.1,0.2,0.1,0.3,0.2c0.1,0.1,0.3,0.2,0.5,0.1
		c0.8-0.2,1.6-1.3,1.1-2.1c-0.2-0.4-0.5-0.9-0.6-1.3c-0.1-0.2-0.3-0.4-0.5-0.6c-0.9-0.6-2-0.4-2.7,0.4c-0.3,0.4-0.5,0.9-0.7,1.4
		c0.1-1,0.5-1.8,1.4-2.2c1-0.5,2.4,0.1,2.6,1.2c0.1,0.2,0.2,0.4,0.4,0.6c0.7,1.2,0,2.3-1.3,2.7c-0.3,0.1-0.6,0.1-0.9,0.2
		c-0.5,0.1-0.8,0.3-1,0.8c-0.2,0.7-0.4,1.4-1,1.9c-0.2,0.2-0.1,0.5,0,0.7c0.4,0.9,0.1,1.4-0.8,1.5c-0.1,0-0.2,0-0.5,0.1
		c0.4,0.3,0.7,0.6,1,1c0.3,0.3,0.4,0.7,0.6,1c0.4,0.7,0.7,1.5,0.9,2.3c0.1,0.2,0.2,0.4,0.3,0.5c0.1,0.1,0.1,0.2,0.2,0.2
		c0.1,0,0.1-0.2,0.1-0.3c0.1-0.3,0-0.7-0.2-1c-0.9-1.7-0.6-3.3,0.6-4.8c1.2-1.6,3.8-1.5,4.9,0c0,0,0,0,0,0c0.3,0.8,1,1.4,1.3,2.2
		c0.5,1.2,0.1,2.5-0.9,3.3c-0.6,0.5-1.4,0.7-2.1,0.9c-0.2,0.1-0.4,0.1-0.5,0.2c-0.6,0.2-1,0.5-1.1,1.2c-0.1,0.8-0.3,1.6-0.7,2.4
		c-0.1,0.3-0.3,0.6-0.6,0.8c-0.2,0.2-0.3,0.5-0.2,0.8c0.1,0.5,0.5,0.8,0.6,1.3c0.1,0.7-0.1,1.3-0.8,1.6c-0.6,0.3-1.3,0.4-2,0.3
		c-0.6-0.1-0.9-0.2-1.1-0.8c-0.1-0.3-0.2-0.6-0.2-0.8c0-0.1-0.1-0.2-0.2-0.2c-0.9,0.3-1.9,0.1-2.9,0.1c-0.1,0-0.2,0-0.3,0
		c-0.3,0-0.4,0.1-0.3,0.3c0,0.5-0.1,0.9-0.4,1.3c-0.1,0.1-0.3,0.3-0.4,0.3c-0.7,0-1.5,0.1-2.2-0.3c-0.4-0.2-0.6-0.5-0.6-0.9
		c0-0.3-0.1-0.7,0-1c0.1-0.2,0-0.2-0.1-0.3c-1.3-0.8-2.3-1.9-3.1-3.2c-0.1-0.2-0.5-0.4,0-0.6c0,0,0,0,0-0.1c0-0.7,0.4-1.1,0.8-1.5
		c0.3-0.4,0.3-0.9,0.5-1.3c0.6-2.2,1.6-4.1,3.8-5.1c0.1,0,0.1-0.1,0.2-0.1c0,0,0,0,0.1-0.1c0,0-0.1-0.1-0.1-0.1
		c-0.7-0.3-0.8-0.5-0.6-1.3c0-0.2,0-0.3-0.1-0.4c-0.8-0.6-1.2-1.3-1.6-2.2c-0.2-0.3,0.1-0.7,0.3-0.9c0.6-0.6,0.8-1.4,1.1-2
		c0.4-0.8,0.9-1.4,1.7-1.8c0.2-0.1,0.2-0.2,0.1-0.4l0,0c0.3,0.1,0.6,0.1,0.8-0.1l0,0c0.6,0,1.1-0.1,1.7,0c0.1,0,0.1-0.1,0.1-0.1l0,0
		c0.3,0.3,0.7,0.4,1.2,0.2 M25.6,23.2c0.4,0,0.6-0.1,0.7-0.3c0.1-0.1,0.2-0.2,0.4-0.1c0.2,0.1,0.4,0.2,0.4,0.5
		c0.1,0.3,0,0.4-0.3,0.6c-0.1,0.1-0.2,0.2-0.2,0.4c0.1,0.3,0.9,0.7,1.3,0.5c0.6-0.2,1-0.6,1.4-1.2c0.5-0.8,0.6-1.7,0.1-2.5
		c-0.3-0.5-0.7-0.8-0.9-1.3c-0.5-1.2-1.6-1.8-2.8-1.7c-1.4,0.2-2.2,1-2.8,2.2c-0.5,1-0.5,2.1,0.1,3.1c0.3,0.5,0.4,1,0.3,1.5
		c-0.1,0.5-0.1,0.9,0.3,1.3c0.2,0.2,0.1,0.4,0.1,0.6c-0.2,1-0.8,1.8-1.7,2.3c-1.6,0.9-3.3,1.3-5.2,1.3c-1.9,0-3.7-0.2-5.3-1.1
		c-0.5-0.3-1-0.6-1.5-1c0.5,1,1.8,2.3,2.9,3c0.3,0.2,0.3,0.3,0.3,0.6c-0.3,1.1,0.3,1.6,1,1.8c0.3,0.1,0.7,0.1,1,0
		c0.9-0.1,1.1-0.3,1.1-1.2c0-0.7,0.2-0.9,0.9-0.7c0.9,0.2,1.9,0.2,2.8,0c0.3-0.1,0.4,0.1,0.4,0.3c0.1,0.3,0.1,0.6,0.2,0.9
		c0.1,0.3,0.3,0.5,0.6,0.5c0.8,0.1,1.5,0,2.3-0.3c0.6-0.2,0.8-0.8,0.6-1.4c-0.2-0.4-0.3-0.8-0.5-1.2c-0.1-0.1-0.1-0.2-0.1-0.3
		c0.1-0.2,0.2-0.5,0.4-0.7c0.4-0.5,0.6-1,0.8-1.6c0.1-0.5,0.3-1.1,0.4-1.6c0.2-0.6,0.5-1.1,1.1-1.2c0.3-0.1,0.7-0.1,1.1-0.2
		C26.5,24.4,26.3,23.6,25.6,23.2z M22.6,26.1c-0.7,0.1-0.7,0.1-1-0.6c-0.1-0.3-0.3-0.6-0.4-1C21,24,21,23.6,21.5,23.2
		c0.1-0.1,0.2-0.2,0.1-0.4c-0.5-1.1-1.2-2.1-2.2-2.8c-0.2-0.1-0.3-0.2-0.6,0c-0.9,0.8-2.4,0.7-3.3,0.1c-0.1-0.1-0.2-0.2-0.3-0.3
		c0-0.1,0-0.2-0.1-0.2c-0.1,0-0.3,0.1-0.3,0.2c-0.1,0.1,0,0.2,0.1,0.2c0.3,0.3,0.7,0.6,1.1,0.7c0.5,0.1,0.6,0.3,0.5,0.8
		c-0.1,0.8-0.4,1.5-0.6,2.2c-0.2,0.5-0.5,0.8-1,0.7c-1.1-0.1-2.2-0.5-2.9-1.4c-0.1-0.1-0.1-0.2-0.2-0.1c-0.1,0.1-0.2,0.2-0.1,0.3
		c0,0.1,0.1,0.1,0.2,0.2c0.3,0.4,0.8,0.5,1.2,0.7c0.4,0.2,0.6,0.5,0.7,0.9c0.2,0.8-0.1,1.5-0.5,2.1c-0.1,0.2-0.3,0.3-0.6,0.3
		c-0.3,0-0.7-0.2-1-0.3c0.5,0.6,0.7,1.2,0.3,1.9c-0.1,0.2,0.1,0.2,0.2,0.3c0.1,0.1,0.2,0,0.2-0.1c0.1-0.6,0.5-1,1-1
		c1,0,2.1,0.4,2.2,1.7c0,0.1-0.1,0.3,0.1,0.3c0.1,0,0.1-0.1,0.1-0.2c0.2-1.1,1.1-1.3,1.9-1.3c0.6,0.1,1.2,0.3,1.5,1
		c0,0.1,0,0.2,0.2,0.1c-0.1-0.7,0-1.3,0.7-1.7c0.4-0.2,0.8-0.4,1.2-0.3c0.4,0.1,0.8,0.4,1.1,0.7c0.1-0.5-0.2-0.8-0.1-1.3
		C22.2,26.8,22.4,26.5,22.6,26.1z M14.8,24.2c0.5,0,0.7-0.1,0.8-0.6c0.1-0.6,0.3-1.2,0.5-1.8c0.2-0.6,0.2-0.5-0.4-0.8
		c-0.4-0.2-0.9-0.3-1.1-0.8c-0.1-0.3-0.3-0.3-0.5-0.1c-0.9,0.6-1.6,1.4-2.2,2.3c-0.1,0.2-0.1,0.4,0.1,0.5
		C12.8,23.7,13.8,24,14.8,24.2z M13.4,25.1c0.1-0.2-0.1-0.4-0.4-0.5c-0.4-0.2-0.9-0.4-1.3-0.7c-0.4-0.3-0.4-0.3-0.6,0.2
		c-0.2,0.6-0.3,1.2-0.5,1.8c0,0.1,0,0.2,0.1,0.3c0.5,0.6,1.1,0.9,1.8,1.1c0.2,0.1,0.2,0,0.3-0.1C13.3,26.6,13.3,25.9,13.4,25.1z
		 M13.7,28.5c-0.6,0-0.9,0.1-1.1,0.5c-0.2,0.3-0.1,0.5,0.3,0.7c0.7,0.2,1.3,0.4,2,0.5c0.3,0.1,0.4-0.1,0.4-0.3
		c0-0.2-0.1-0.4-0.2-0.6C14.7,28.8,14.2,28.5,13.7,28.5z M11.8,28.4c0-0.6-0.8-1.5-1.5-1.5c-0.6,0-0.8,0.4-0.6,0.9
		c0.3,0.6,0.8,0.8,1.3,1.1C11.5,29.1,11.8,28.9,11.8,28.4z M19.5,29.3c0,0.1-0.1,0.4,0.2,0.3c0.8-0.1,1.5-0.4,2.2-0.8
		c0.1-0.1,0.2-0.2,0-0.3c-0.3-0.4-1-0.5-1.6-0.3C19.9,28.3,19.5,28.8,19.5,29.3z M16.7,30.2c0.5,0,1.1-0.1,1.8-0.2
		c0.4-0.1,0.3-0.2,0.2-0.4c-0.5-0.8-1.9-0.9-2.5-0.1c-0.1,0.2-0.2,0.4-0.2,0.6c0.1,0.2,0.3,0.1,0.5,0.1
		C16.6,30.2,16.6,30.2,16.7,30.2z M17,19.4c-0.4,0-0.9,0-1.3,0.2c-0.2,0.1-0.2,0.1-0.1,0.3c0.1,0.1,0.1,0.2,0.2,0.2
		c0.6,0.4,2.2,0.3,2.8-0.1c0.2-0.2,0.2-0.3-0.1-0.3C18.1,19.4,17.6,19.2,17,19.4z M21.3,23.9c0.2,0.5,0.2,1,0.5,1.5
		c0.1,0.2,0.2,0.3,0.3,0.4c0.1,0.1,0.3,0.2,0.4,0c0.1-0.1,0.4-0.2,0.2-0.5c-0.3-0.6-0.6-1.2-0.8-1.8c0-0.1-0.1-0.2-0.2-0.2
		C21.5,23.5,21.4,23.7,21.3,23.9z M17.1,19.1c0.4,0,0.9,0.1,1.3,0.2c0.1,0,0.2,0.1,0.3,0c0.1-0.2,0-0.4,0-0.6c0-0.1-0.1-0.1-0.2-0.1
		c-0.5,0.1-1.1,0-1.6-0.1c-0.5-0.1-0.6,0-0.6,0.5c0,0.1,0,0.2,0.2,0.2C16.7,19.1,16.9,19.1,17.1,19.1L17.1,19.1z M22.4,27.3
		c0,0.2,0,0.3,0.1,0.5c0.1,0.1,0.1,0.2,0.3,0c0.4-0.4,0.6-0.9,0.5-1.5c0-0.2-0.1-0.3-0.3-0.1C22.7,26.6,22.4,26.9,22.4,27.3
		L22.4,27.3z M10.2,26.5l0.6,0.1C10.5,26.2,10.4,26.2,10.2,26.5L10.2,26.5z"/>
	<path class="st8" d="M16,4.7c-0.1,0.3,0.1,0.5,0.3,0.5c0.2,0.1,0.3,0.2,0.2,0.4c-0.1,0.3-0.2,0.6-0.3,0.9c-0.1,0.2-0.3,0.2-0.5,0.2
		c-0.4-0.1-0.8-0.2-1.1-0.5c0,0-0.1-0.1-0.1-0.1c-0.1,0.1,0,0.1,0,0.2c0.1,0.1,0.3,0.2,0.4,0.2c0.3,0.1,0.4,0.3,0.4,0.6
		c0,0.3-0.1,0.6-0.3,0.8c-0.2,0.1-0.3-0.1-0.5,0c0.1,0.3,0.1,0.5,0.1,0.8c0.2-0.4,0.5-0.5,0.8-0.4c0.4,0.1,0.6,0.3,0.6,0.7
		c0.5-0.7,1-0.8,1.5-0.2c0.1-0.3,0.1-0.5,0.3-0.6c0,0,0.1-0.1,0-0.1c0,0-0.1,0-0.1,0c0.4-0.4,0.7,0.1,1.1,0.2c0-0.2-0.1-0.4,0-0.6
		l0,0c0,0.1-0.1,0.3,0.1,0.4c0.1,0.1,0.1-0.1,0.2-0.1l0,0c0,0.3-0.2,0.4-0.4,0.6c-1.2,0.8-3.5,0.7-4.7-0.1c-0.1,0-0.1-0.1-0.1-0.2
		c0.1,0.1,0.2,0.1,0.4,0.2c0.1,0.1,0.2,0,0.2-0.1c0.1-0.3-0.1-0.5-0.3-0.6c-0.1-0.1-0.3-0.2-0.4,0c-0.2,0.2,0,0.4,0.1,0.5
		c0,0,0,0,0,0.1c-0.3,0-0.4-0.1-0.3-0.4c0.1-0.4,0.5-0.7,0.6-1.1c0,0.2-0.2,0.4,0,0.5c0.2,0.3,0.4,0.5,0.7,0.4
		c0.3,0,0.3-0.4,0.3-0.6c0-0.2,0-0.4-0.2-0.5c-0.1-0.1-0.3-0.2-0.4-0.3c-0.1-0.1-0.2,0-0.3,0c0.1-0.3,0.1-0.6,0.4-0.8
		c-0.2,0.2-0.1,0.4,0.1,0.6c0.3,0.2,0.5,0.3,0.8,0.4c0.2,0.1,0.4,0,0.5-0.3c0.1-0.2,0.1-0.5,0.2-0.7c0-0.1,0-0.2,0-0.2
		C16.1,5.3,16,5,15.6,4.9C15.8,4.8,15.9,4.8,16,4.7C16,4.7,16,4.7,16,4.7z M15.3,8.4c-0.2,0-0.3,0.1-0.4,0.3c0,0.2,0.2,0.2,0.3,0.3
		c0.1,0,0.2,0.1,0.4,0.1c0.1,0,0.3,0.1,0.4,0c0.1-0.2-0.1-0.4-0.2-0.5C15.6,8.4,15.5,8.4,15.3,8.4z M16.7,9.1c0.1,0,0.2,0,0.3,0
		c0.1-0.1,0.4,0.1,0.4-0.2c0-0.2-0.3-0.3-0.5-0.3c-0.1,0-0.2,0-0.3,0.1c-0.1,0.1-0.3,0.2-0.3,0.3C16.4,9.2,16.6,9.1,16.7,9.1z
		 M18.3,8.3c-0.2,0-0.4,0.1-0.5,0.3c-0.1,0.1-0.1,0.2,0,0.3c0.1,0.1,0.2,0.1,0.3,0c0.2-0.1,0.4-0.1,0.6-0.2c0.2-0.1,0.1-0.2,0-0.3
		C18.5,8.3,18.4,8.3,18.3,8.3z"/>
	<path class="st8" d="M19,7.8c0-0.2,0.1-0.3-0.2-0.3c-0.3,0-0.3-0.4-0.4-0.6c0,0,0.2,0,0.1-0.1c-0.1-0.2,0.1-0.3,0.1-0.4
		c-0.2,0.2,0,0.5,0,0.7c0,0.2,0.1,0.4,0.3,0.3C19.2,7.3,19,7.1,19,7c0,0,0-0.1,0-0.1C19.1,7,19.2,7,19.3,7l0,0
		c-0.1,0.2,0,0.3,0.1,0.5c0.1,0.2,0.1,0.4-0.1,0.6l0,0c0-0.1,0-0.1,0-0.2c0-0.1,0.1-0.2,0-0.3C19.1,7.5,19.1,7.6,19,7.8
		C19,7.7,19,7.7,19,7.8L19,7.8z"/>
	<path class="st8" d="M17.9,5c-0.1,0-0.2-0.1-0.4,0c-0.6,0.3-1.1,0.2-1.5-0.3c0,0,0,0,0,0c0.1,0.1,0.2,0,0.2,0.1
		c0.3,0.3,0.7,0.4,1.1,0.2c0.1,0,0.2-0.1,0.1-0.1c0-0.1-0.1-0.1-0.2-0.1c-0.3-0.1-0.6,0-0.9-0.1C17,4.6,17.5,4.6,17.9,5L17.9,5z"/>
	<path class="st8" d="M16.7,5.8c0,0.1,0,0.3-0.1,0.4c-0.1,0.4,0,0.5,0.4,0.5c0.4,0,0.7-0.1,1.1-0.3c-0.3,0.3-1.1,0.5-1.4,0.3
		c-0.1,0-0.1-0.1-0.1-0.2C16.6,6.3,16.5,6,16.7,5.8L16.7,5.8z"/>
	<path class="st8" d="M15.5,10.5c-0.3,0.1-0.5-0.1-0.5-0.4c0-0.4-0.1-0.6-0.4-0.8C14.3,9.2,14.2,9,14,8.7c0.3,0.3,0.6,0.6,1,0.8
		c0.1,0.1,0,0.3,0,0.4C15,10.2,15.2,10.4,15.5,10.5C15.5,10.5,15.5,10.5,15.5,10.5z"/>
	<path class="st8" d="M18.4,6.9c-0.4-0.2-1,0.2-1,0.6c0,0.2,0,0.3,0,0.5c0,0.2,0.1,0.3,0.3,0.3c-0.2,0.2-0.4,0.1-0.4-0.2
		c0-0.2,0-0.5,0-0.7c0-0.4,0.5-0.4,0.7-0.6C18.2,6.6,18.3,6.7,18.4,6.9z"/>
	<path class="st8" d="M16.3,10.4c0,0,0-0.1,0-0.1c0-0.5,0-0.5,0.5-0.5c0.2,0,0.5,0.1,0.7,0c0.4-0.1,0.5,0,0.4,0.4l0,0
		c-0.1-0.3-0.2-0.5-0.6-0.3c-0.1,0-0.2,0-0.3,0C16.5,9.9,16.5,9.9,16.3,10.4L16.3,10.4z"/>
	<path class="st8" d="M16.7,5.8c-0.1-0.3,0-0.5,0.4-0.5c0.2,0,0.4,0,0.5-0.1c0.1-0.1,0.2-0.1,0.3,0c-0.3,0.1-0.6,0.2-0.9,0.2
		C16.8,5.4,16.8,5.7,16.7,5.8C16.7,5.8,16.7,5.8,16.7,5.8z"/>
	<path class="st8" d="M17.9,5c0.4,0.2,0.6,0.5,0.7,0.9C18.4,5.5,18.1,5.3,17.9,5L17.9,5z"/>
	<path class="st8" d="M16.2,8.4c-0.6,0-0.8-0.2-0.8-0.6C15.5,8.1,15.8,8.2,16.2,8.4z"/>
	<path class="st8" d="M19.3,7c0-0.2-0.1-0.4-0.1-0.5C19.1,6.3,19,6.1,19,5.9C19.1,6.3,19.4,6.6,19.3,7C19.3,7,19.3,7,19.3,7z"/>
	<path class="st8" d="M18,26.9c0,0.2,0,0.5,0,0.7c0,0.4-0.1,0.6-0.5,0.7c-1.2,0.3-2.3,0.3-3.4-0.3c-0.4-0.2-0.6-0.6-0.4-1.1
		c0.1-0.6,0.3-1.2,0.5-1.8c0.1-0.2,0.3-0.3,0.5-0.3c0.7,0.1,1.4,0.2,2,0.3c0.1,0,0.2,0,0.4,0c0.4-0.1,0.8,0.1,0.9,0.6
		C18.1,26.1,18.1,26.5,18,26.9z M17.8,26.8c0-0.3,0-0.6,0-0.8c0.1-0.4-0.1-0.6-0.6-0.5c-0.2,0.1-0.4,0.1-0.6,0
		c-0.6-0.1-1.3-0.2-1.9-0.4c-0.2,0-0.4-0.1-0.4,0.2c-0.1,0.6-0.3,1.1-0.4,1.7c-0.1,0.3,0,0.5,0.2,0.7c1,0.8,2.2,0.9,3.4,0.5
		c0.3-0.1,0.4-0.4,0.3-0.6C17.9,27.2,17.9,27,17.8,26.8z"/>
	<path class="st8" d="M17.9,14.8c0,0.3-0.1,0.7-0.2,1.1c0,0.2-0.2,0.3-0.4,0.3c-0.7,0-1.3,0-1.9-0.4c-0.3-0.2-0.4-0.5-0.3-0.9
		c0.1-0.3,0.2-0.6,0.4-0.9c0.1-0.2,0.2-0.3,0.5-0.2c0.5,0.1,1,0.3,1.6,0.3C17.8,14.2,17.8,14.5,17.9,14.8z"/>
	<path class="st8" d="M20.4,8.5L20.4,8.5l-0.7-2.9c0-0.1-0.1-0.3-0.3-0.3L16.8,4C16.6,4,16.5,4,16.3,4l-2.7,1.3
		c-0.1,0.1-0.2,0.2-0.3,0.3l-0.7,2.9c0,0.1,0,0.1,0,0.2c0,0,0,0,0,0.1c0,0,0,0.1,0.1,0.1c0,0,0,0,0,0l1.8,2.3c0,0,0,0,0,0
		c0,0,0.1,0.1,0.1,0.1c0,0,0.1,0,0.1,0.1c0,0,0.1,0,0.1,0h0l2.9,0c0,0,0,0,0.1,0c0,0,0.1,0,0.1,0c0,0,0,0,0.1,0c0,0,0,0,0,0
		c0,0,0,0,0.1,0c0,0,0.1-0.1,0.1-0.1l0.1-0.1l1.8-2.2c0,0,0.1-0.1,0.1-0.1c0,0,0,0,0-0.1C20.4,8.7,20.4,8.6,20.4,8.5z M13.8,8.5
		c0,0,0-0.1,0-0.1C13.8,8.4,13.8,8.5,13.8,8.5C13.8,8.5,13.8,8.5,13.8,8.5z M16.5,5C16.5,5,16.6,5,16.5,5C16.6,5,16.5,5,16.5,5z"/>
	<path class="st9" d="M19.1,8.2C19.1,8.2,19.1,8.2,19.1,8.2c-0.1,0-0.1,0-0.2,0c-0.1,0-0.2,0-0.3,0c0,0-0.1,0-0.1-0.1l-0.1,0
		c0.1-0.5,0-1-0.3-1.4c0,0,0,0,0.1,0c0,0,0-0.1,0-0.1c0.1-0.1,0.1-0.1,0.2-0.2c0,0,0.1,0,0.1-0.1c0,0,0,0,0,0c0.1,0,0.1-0.1,0-0.2
		c0-0.1-0.1-0.1-0.2,0c0,0,0,0,0,0c0,0,0,0,0,0c0,0-0.1,0.1-0.1,0.1c-0.1,0.1-0.1,0.1-0.2,0.2c0,0-0.1,0-0.1,0l-0.1,0
		c-0.3-0.4-0.8-0.6-1.3-0.6c0,0,0-0.1,0-0.1c0,0,0,0-0.1-0.1c0-0.1,0-0.2,0-0.3c0,0,0-0.1,0-0.1c0,0,0,0,0,0c0-0.1-0.1-0.2-0.1-0.2
		c-0.1,0-0.2,0.1-0.2,0.1c0,0,0,0,0,0c0,0,0,0,0,0c0,0,0,0,0,0c0,0,0,0.1,0,0.1c0,0.1,0,0.2,0,0.3c0,0,0,0.1-0.1,0.1l0,0.1
		c-0.1,0-0.2,0-0.3,0c-0.4,0.1-0.7,0.3-1,0.6c0,0,0,0-0.1,0c0,0-0.1,0-0.1,0c-0.1-0.1-0.1-0.1-0.2-0.2c0,0-0.1-0.1-0.1-0.1
		c0,0,0,0,0,0c0,0-0.1,0-0.1,0c0,0-0.1,0-0.1,0.1c-0.1,0.1,0,0.2,0,0.2l0,0c0,0,0,0,0,0c0,0,0.1,0.1,0.1,0.1c0.1,0,0.2,0.1,0.2,0.2
		c0,0,0,0.1,0,0.1l0,0C14.5,7,14.4,7.5,14.5,8l-0.1,0c0,0,0,0.1-0.1,0.1c-0.1,0-0.2,0-0.3,0c0,0-0.1,0-0.1,0c0,0,0,0,0,0l0,0l0,0
		c-0.1,0-0.1,0.1-0.1,0.2c0,0.1,0.1,0.1,0.2,0.1c0,0,0,0,0,0l0,0c0,0,0,0,0,0c0,0,0,0,0,0c0,0,0.1,0,0.1-0.1c0.1,0,0.2-0.1,0.3-0.1
		c0,0,0.1,0,0.1,0l0.1,0c0.2,0.5,0.5,0.9,0.9,1.1l0,0.1c0,0,0,0.1,0,0.1c0,0.1-0.1,0.2-0.1,0.3c0,0-0.1,0.1-0.1,0.1c0,0,0,0,0,0
		c0,0.1,0,0.2,0.1,0.2c0.1,0,0.2,0,0.2-0.1c0,0,0,0,0,0l0,0v0c0,0,0,0,0,0c0,0,0-0.1,0-0.1c0-0.1,0.1-0.2,0.1-0.3c0,0,0,0,0.1,0
		l0-0.1c0.5,0.2,1,0.2,1.4,0c0,0,0,0.1,0,0.1c0,0,0.1,0,0.1,0c0,0.1,0.1,0.2,0.1,0.3c0,0,0,0.1,0,0.1c0,0,0,0,0,0
		c0,0.1,0.1,0.1,0.2,0.1c0.1,0,0.1-0.1,0.1-0.2c0,0,0,0,0,0c0,0,0,0,0,0c0,0-0.1-0.1-0.1-0.1c-0.1-0.1-0.1-0.2-0.1-0.2
		c0,0,0-0.1,0-0.1c0,0,0,0,0-0.1c0.4-0.3,0.7-0.7,0.9-1.1c0,0,0.1,0,0.1,0c0,0,0.1,0,0.1,0c0.1,0,0.2,0,0.3,0.1c0,0,0.1,0,0.1,0.1
		c0,0,0,0,0,0c0,0,0,0,0,0l0,0c0.1,0,0.2,0,0.2-0.1C19.3,8.3,19.2,8.2,19.1,8.2C19.1,8.2,19.1,8.2,19.1,8.2L19.1,8.2z M17.6,6.6
		L17,7.1l0,0c-0.1,0-0.1,0-0.2,0c0,0,0,0,0-0.1l0,0l0-0.8C17,6.2,17.4,6.3,17.6,6.6z M16.4,7.5h0.3l0.2,0.2l-0.1,0.2L16.5,8
		l-0.2-0.1l-0.1-0.2L16.4,7.5z M16.1,6.2c0.1,0,0.1,0,0.2,0l0,0.8l0,0c0,0.1-0.1,0.1-0.1,0.1c0,0-0.1,0-0.1,0l0,0l-0.7-0.5
		C15.6,6.4,15.8,6.2,16.1,6.2z M15.1,6.9l0.6,0.5l0,0c0.1,0,0.1,0.1,0,0.2c0,0,0,0-0.1,0l0,0l-0.8,0.2C14.9,7.6,14.9,7.2,15.1,6.9z
		 M15.9,8.3l-0.3,0.8c-0.3-0.2-0.5-0.5-0.6-0.8l0.8-0.1l0,0c0,0,0,0,0,0C15.9,8.2,15.9,8.2,15.9,8.3C15.9,8.3,15.9,8.3,15.9,8.3
		L15.9,8.3z M16.9,9.3c-0.3,0.1-0.6,0.1-0.9,0l0.4-0.7h0c0-0.1,0.1-0.1,0.2-0.1c0,0,0,0,0.1,0.1h0L17,9.3C17,9.3,16.9,9.3,16.9,9.3
		L16.9,9.3z M17.4,9.1l-0.3-0.8l0,0c0-0.1,0-0.1,0.1-0.2c0,0,0,0,0.1,0c0,0,0,0,0,0l0,0L18,8.3C17.9,8.6,17.7,8.9,17.4,9.1L17.4,9.1
		z M18.1,7.9l-0.8-0.2l0,0c-0.1,0-0.1-0.1-0.1-0.2c0,0,0,0,0-0.1l0,0l0.6-0.5C18.1,7.2,18.1,7.6,18.1,7.9z"/>
	
		<linearGradient id="SVGID_00000011020604274038030600000003875340633642524593_" gradientUnits="userSpaceOnUse" x1="9.7539" y1="14.098" x2="29.6559" y2="14.098" gradientTransform="matrix(1 0 0 -1 0 40)">
		<stop  offset="0" style="stop-color:#326DE6"/>
		<stop  offset="1" style="stop-color:#10FFC6"/>
	</linearGradient>
	<path style="fill:url(#SVGID_00000011020604274038030600000003875340633642524593_);" d="M25.6,23.2C25.7,23.2,25.7,23.2,25.6,23.2
		c0.3-0.1,0.5-0.2,0.6-0.4c0.1-0.1,0.2-0.1,0.4-0.1c0.2,0.1,0.4,0.2,0.5,0.5c0,0.3-0.1,0.4-0.3,0.6c-0.2,0.1-0.2,0.3,0,0.5
		c0.3,0.4,0.9,0.5,1.3,0.3c0.9-0.4,1.3-1.2,1.5-2.1c0-0.2,0-0.3,0-0.5c0-0.5-0.3-1-0.6-1.4c-0.3-0.4-0.5-0.7-0.7-1.1
		c-0.4-0.7-0.9-1.2-1.7-1.4c-1-0.2-2,0-2.8,0.7c-0.6,0.5-0.9,1.2-1.2,1.9c-0.3,0.9-0.2,1.7,0.3,2.6c0.3,0.5,0.4,1,0.3,1.6
		c-0.1,0.5-0.1,0.9,0.3,1.3c0.1,0.1,0.1,0.3,0.1,0.5c-0.2,1.1-0.7,1.9-1.7,2.5c-2.2,1.3-4.7,1.6-7.2,1.3c-1.6-0.2-3.2-0.8-4.6-1.8
		c-0.1-0.1-0.1-0.1-0.2-0.1c0,0.1,0,0.1,0.1,0.2c0.7,1,1.6,1.9,2.6,2.6c0.3,0.2,0.4,0.3,0.3,0.7c-0.2,0.9,0.2,1.6,1.1,1.7
		c0.5,0.1,0.9,0.1,1.4,0c0.4-0.1,0.5-0.2,0.6-0.7c0-0.2,0-0.4,0-0.7c0-0.4,0.3-0.6,0.7-0.6c0.1,0,0.2,0,0.3,0c0.9,0.1,1.8,0.2,2.7,0
		c0.3-0.1,0.4,0,0.5,0.3c0.1,0.3,0.1,0.6,0.2,0.8c0.1,0.3,0.2,0.5,0.5,0.5c0.8,0.1,1.5,0.1,2.3-0.3c0.6-0.3,0.8-0.8,0.6-1.4
		c-0.2-0.4-0.3-0.8-0.5-1.2c0-0.1-0.1-0.2,0-0.3c0.1-0.3,0.2-0.5,0.4-0.7c0.4-0.5,0.6-1,0.8-1.6c0.1-0.6,0.3-1.1,0.4-1.7
		c0.2-0.6,0.6-1,1.2-1.1c0.2,0,0.5-0.1,0.7-0.1c0.2,0,0.2-0.1,0.1-0.2c-0.1-0.2-0.3-0.4-0.4-0.6C26.3,23.9,26,23.5,25.6,23.2
		C25.7,23.3,25.6,23.3,25.6,23.2z M11.7,27.3C11.7,27.3,11.7,27.3,11.7,27.3c0.4,0.6,0.6,1.2,0.2,1.8c-0.1,0.1,0,0.2,0.1,0.2
		c0.1,0,0.2,0,0.2-0.1c0,0,0-0.1,0-0.1c0.2-0.6,0.6-0.9,1.3-0.8c0.1,0,0.2,0,0.2,0c1,0.1,1.7,0.8,1.7,1.7c0,0.1,0,0.2,0.1,0.2
		c0.1,0,0.1-0.1,0.1-0.1c0.2-0.8,0.6-1.2,1.4-1.3c0.2,0,0.4,0,0.6,0c0.7,0.1,1.2,0.3,1.4,1c0,0,0,0.1,0.1,0.1c0.1-0.1,0-0.2,0-0.2
		c0-0.4,0.1-0.8,0.3-1.1c0.7-0.8,1.8-0.9,2.5-0.1c0,0,0,0,0.1,0.1c0,0,0.1,0.1,0.1,0.1c0.1,0,0.1-0.1,0-0.1c0-0.2-0.1-0.3-0.1-0.5
		c-0.1-0.3-0.1-0.6,0-0.9c0.1-0.2,0.1-0.4,0.2-0.6c0,0,0.1-0.1,0-0.2c0-0.1-0.1,0-0.2,0c-0.4,0-0.5,0-0.7-0.4
		c-0.2-0.4-0.3-0.8-0.5-1.1c-0.2-0.6-0.2-1.1,0.3-1.5c0.1-0.1,0.1-0.2,0.1-0.4c-0.1-0.2-0.2-0.3-0.3-0.5c-0.5-0.8-1-1.6-1.8-2.2
		c-0.3-0.2-0.4-0.2-0.6,0c-0.9,0.7-2.3,0.7-3.2,0.1c-0.1-0.1-0.2-0.2-0.3-0.3c-0.1-0.2-0.2-0.2-0.3-0.1c-0.2,0.1-0.2,0.2-0.1,0.3
		c0.3,0.4,0.7,0.6,1.1,0.7c0.3,0.1,0.5,0.3,0.4,0.6c-0.1,0.9-0.4,1.8-0.7,2.7c-0.2,0.4-0.5,0.5-0.9,0.5c-1.2-0.1-2.3-0.5-3-1.5
		c-0.1-0.1-0.1-0.1-0.2,0c-0.1,0.1-0.1,0.2,0,0.4c0.3,0.4,0.8,0.5,1.2,0.7c0.5,0.2,0.7,0.5,0.8,1c0.1,0.7-0.1,1.3-0.4,1.9
		c-0.2,0.5-0.4,0.5-0.9,0.4c-0.1,0-0.2-0.1-0.4-0.1C11.9,27.3,11.8,27.3,11.7,27.3L11.7,27.3z M14.8,24.2c0.5,0,0.7-0.2,0.8-0.5
		c0.2-0.7,0.4-1.4,0.5-2.1c0.1-0.2,0-0.3-0.2-0.4c-0.3-0.1-0.5-0.2-0.8-0.4c-0.2-0.1-0.4-0.3-0.6-0.5c-0.2-0.3-0.3-0.3-0.6-0.1
		c-0.8,0.6-1.6,1.3-2.1,2.2c-0.1,0.3-0.1,0.4,0.1,0.6C12.8,23.7,13.8,24,14.8,24.2L14.8,24.2z M13.4,25.1c0-0.2-0.2-0.3-0.4-0.4
		c-0.5-0.2-0.9-0.5-1.3-0.8c-0.3-0.2-0.4-0.2-0.5,0.2c-0.2,0.6-0.3,1.2-0.5,1.7c0,0.1,0,0.3,0.1,0.4c0.3,0.4,0.8,0.7,1.3,0.9
		c0.6,0.3,0.8,0.2,1.1-0.4C13.3,26.2,13.3,25.6,13.4,25.1z M13.6,28.5c-0.5,0-0.8,0.1-1,0.4c-0.2,0.3-0.1,0.6,0.2,0.7
		c0.6,0.2,1.3,0.4,2,0.5c0.2,0,0.3,0,0.3-0.2c0-0.2,0-0.4-0.1-0.6C14.7,28.8,14.2,28.5,13.6,28.5L13.6,28.5z M10.4,26.9
		c-0.5,0-0.7,0.3-0.6,0.8c0,0.1,0.1,0.3,0.2,0.4c0.3,0.4,0.7,0.6,1.2,0.8c0.3,0.2,0.6,0,0.6-0.4c0-0.1,0-0.2,0-0.2
		c-0.2-0.7-0.6-1.1-1.3-1.3C10.5,27,10.4,26.9,10.4,26.9z M19.5,29.3c0,0.3,0,0.3,0.3,0.3c0.7-0.1,1.4-0.4,2-0.8
		c0.2-0.1,0.2-0.2,0-0.4c-0.3-0.3-0.7-0.4-1.1-0.3C20.1,28.2,19.5,28.7,19.5,29.3L19.5,29.3z M16.7,30.2L16.7,30.2
		c0.4,0,0.9-0.1,1.3-0.1c0.1,0,0.3,0,0.4-0.1c0.3-0.1,0.4-0.2,0.2-0.4c-0.4-0.6-1.4-0.8-2.1-0.4c-0.2,0.1-0.4,0.4-0.5,0.6
		c-0.1,0.2,0,0.3,0.2,0.3C16.5,30.2,16.6,30.2,16.7,30.2L16.7,30.2z M17,20.3c0.3,0,0.7,0,1-0.1c0.2,0,0.4-0.1,0.6-0.3
		c0.1-0.1,0.1-0.2,0-0.3c-0.9-0.3-1.7-0.3-2.6-0.1c0,0-0.1,0-0.1,0.1c-0.2,0.1-0.2,0.1-0.1,0.3c0.1,0.1,0.3,0.2,0.5,0.3
		C16.5,20.2,16.7,20.3,17,20.3L17,20.3z M22.7,25.6c0-0.1,0-0.2-0.1-0.2c-0.2-0.4-0.4-0.9-0.6-1.4c-0.1-0.1-0.1-0.3-0.2-0.4
		c0-0.1-0.1-0.1-0.2-0.1c-0.2,0.1-0.4,0.4-0.3,0.6c0.1,0.3,0.1,0.6,0.2,0.9c0.1,0.3,0.3,0.6,0.5,0.9c0.1,0.1,0.2,0.2,0.3,0.1
		C22.5,25.8,22.7,25.7,22.7,25.6L22.7,25.6z M17.2,19.1c0.4,0,0.9,0.1,1.3,0.2c0.1,0,0.2,0.1,0.2,0c0.1-0.2,0-0.4-0.1-0.5
		c0-0.1-0.2-0.1-0.3,0c-0.2,0-0.4,0-0.6,0c-0.3,0-0.7-0.1-1-0.1c-0.3,0-0.4,0.1-0.4,0.4c0,0.2,0.1,0.2,0.2,0.2
		C16.7,19.1,16.9,19.1,17.2,19.1L17.2,19.1z M23.3,26.6c0-0.1,0-0.1,0-0.2c0-0.2-0.1-0.2-0.3-0.1c-0.2,0.2-0.3,0.4-0.4,0.6
		c-0.1,0.3-0.1,0.6,0,0.9c0.1,0.2,0.2,0.2,0.3,0.1C23.1,27.5,23.3,27.1,23.3,26.6L23.3,26.6z"/>
	<path class="st8" d="M26.8,21c0-0.3,0.1-0.5,0.3-0.5c0.2,0,0.3,0.2,0.3,0.4c0,0.2-0.1,0.4-0.3,0.4C26.8,21.4,26.8,21.2,26.8,21z"/>
	<path class="st8" d="M23.3,14.3c-0.1-0.3-0.2-0.5-0.4-0.7c0.1-0.1,0.2-0.1,0.3-0.2c0.2-0.2,0.3-0.1,0.5,0c0.1,0.2,0.1,0.4-0.1,0.5
		C23.4,14,23.3,14.1,23.3,14.3C23.3,14.3,23.3,14.3,23.3,14.3z"/>
	<path class="st8" d="M23.8,11.9c0.1,0,0.2,0.1,0.2,0.2c0,0.1,0,0.3-0.2,0.3c-0.1,0-0.1-0.1-0.1-0.2C23.7,12.1,23.7,12,23.8,11.9z"
		/>
	<path class="st8" d="M17.8,24.6c-0.3,0-0.7,0-1-0.1c-0.4-0.1-0.5-0.3-0.5-0.7c0.1-0.7,0.2-1.5,0.4-2.2c0.1-0.5,0.2-0.6,0.7-0.7
		c0.6-0.1,1.2-0.1,1.7-0.6c0.1-0.1,0.2,0,0.3,0c0.1,0.1,0.3,0.2,0.4,0.3c0.5,0.6,1,1.2,1.2,1.9c0.1,0.2,0,0.4-0.1,0.5
		c-0.6,0.9-1.6,1.3-2.6,1.4C18.2,24.6,18.1,24.6,17.8,24.6z M16.6,23.8c-0.1,0.3,0.2,0.5,0.6,0.5c1.1,0.2,2.1-0.2,3.1-0.7
		c0.5-0.3,0.7-0.7,0.4-1.3c-0.3-0.5-0.6-1-1-1.5c-0.1-0.1-0.3-0.3-0.5-0.1c-0.5,0.3-1.1,0.5-1.7,0.4c-0.3,0-0.3,0.1-0.4,0.3
		C16.8,22.3,16.7,23,16.6,23.8z"/>
	<path class="st8" d="M18.4,26.5c0-0.3,0-0.7,0-1c0-0.2,0.1-0.4,0.3-0.5c0.5-0.1,0.9-0.5,1.3-0.7c0.4-0.2,0.8-0.1,1,0.3
		c0.3,0.5,0.5,1,0.7,1.5c0.2,0.6,0,1-0.5,1.3c-0.4,0.2-0.9,0.4-1.3,0.5c-0.3,0.1-0.6,0.2-0.8,0.3c-0.4,0.2-0.6,0-0.6-0.3
		C18.3,27.4,18.3,26.9,18.4,26.5z M18.6,26.6c0,0.4-0.1,0.8,0,1.3c0,0.2,0.1,0.2,0.3,0.1c0.2-0.1,0.5-0.2,0.7-0.3
		c0.6-0.2,1.2-0.3,1.7-0.7c0.2-0.2,0.3-0.3,0.2-0.6c-0.2-0.7-0.6-1.2-0.9-1.9c-0.1-0.2-0.3-0.1-0.4-0.1c-0.2,0.1-0.5,0.2-0.7,0.3
		c-0.3,0.2-0.8,0.3-1,0.6C18.5,25.7,18.6,26.2,18.6,26.6z"/>
	<path class="st8" d="M22.9,16.3L22.9,16.3l-1.1-4.8c-0.1-0.3-0.2-0.5-0.5-0.6l-4.5-2.1c-0.2-0.1-0.5-0.1-0.7,0L11.7,11
		c-0.2,0.1-0.4,0.3-0.5,0.6l-1.1,4.8c0,0.1,0,0.2,0,0.4c0,0,0,0.1,0,0.1c0,0.1,0,0.1,0.1,0.2c0,0,0,0,0,0.1l3.1,3.8c0,0,0,0,0,0
		c0,0.1,0.1,0.1,0.2,0.1c0.1,0,0.2,0.1,0.2,0.1c0.1,0,0.1,0,0.2,0h0l4.9,0c0,0,0.1,0,0.1,0c0,0,0.1,0,0.1,0c0,0,0.1,0,0.1,0
		c0,0,0,0,0.1,0c0,0,0.1,0,0.1-0.1c0.1,0,0.1-0.1,0.2-0.2l0.1-0.1l3-3.7c0.1-0.1,0.1-0.2,0.1-0.2c0,0,0-0.1,0-0.1
		C22.9,16.6,22.9,16.4,22.9,16.3z M16.4,10.4C16.5,10.4,16.5,10.4,16.4,10.4C16.5,10.4,16.5,10.4,16.4,10.4z"/>
	<path class="st9" d="M20.8,15.8C20.8,15.7,20.7,15.7,20.8,15.8c-0.2,0-0.2,0-0.3,0c-0.2,0-0.3,0-0.5-0.1c0,0-0.1-0.1-0.1-0.1
		l-0.1,0c0.1-0.8-0.1-1.7-0.5-2.3c0,0,0.1-0.1,0.1-0.1c0-0.1,0-0.1,0-0.1c0.1-0.1,0.3-0.2,0.4-0.3c0.1,0,0.1-0.1,0.2-0.1
		c0,0,0,0,0.1,0c0.1-0.1,0.2-0.2,0.1-0.4C20,12,19.9,11.9,19.7,12c0,0,0,0,0,0c0,0,0,0-0.1,0c-0.1,0.1-0.1,0.1-0.2,0.2
		c-0.1,0.1-0.2,0.2-0.4,0.3c-0.1,0-0.1,0-0.2,0l-0.1,0.1c-0.6-0.6-1.3-1-2.2-1c0,0,0-0.1,0-0.1c0,0-0.1-0.1-0.1-0.1
		c0-0.2,0-0.3,0-0.5c0-0.1,0-0.2,0-0.2c0,0,0-0.1,0-0.1c0-0.1-0.1-0.3-0.2-0.3s-0.3,0.1-0.3,0.2c0,0,0,0,0,0.1c0,0,0,0,0,0
		c0,0,0,0,0,0.1c0,0.1,0,0.2,0,0.2c0,0.2,0,0.3,0,0.5c0,0.1,0,0.1-0.1,0.1l0,0.1c-0.2,0-0.3,0-0.5,0.1c-0.7,0.1-1.2,0.5-1.7,1
		c0,0-0.1,0-0.1-0.1c-0.1,0-0.1,0-0.2,0c-0.1-0.1-0.2-0.2-0.4-0.3c-0.1-0.1-0.1-0.1-0.2-0.2c0,0,0,0-0.1,0C13.1,12,13,12,12.9,12
		c-0.1,0-0.2,0-0.2,0.1c-0.1,0.1-0.1,0.3,0.1,0.4l0,0c0,0,0,0,0.1,0c0.1,0,0.1,0.1,0.2,0.1c0.1,0.1,0.3,0.2,0.4,0.3
		c0,0,0,0.1,0.1,0.2l0.1,0.1c-0.5,0.7-0.7,1.5-0.5,2.4l-0.1,0c0,0-0.1,0.1-0.1,0.1c-0.2,0-0.3,0.1-0.5,0.1c-0.1,0-0.2,0-0.3,0
		c0,0,0,0-0.1,0l0,0l0,0c-0.1,0-0.2,0.2-0.2,0.3c0,0.1,0.2,0.2,0.3,0.2c0,0,0,0,0,0l0,0c0,0,0,0,0,0c0,0,0,0,0.1,0
		c0.1,0,0.2-0.1,0.2-0.1c0.1-0.1,0.3-0.1,0.5-0.1c0.1,0,0.1,0,0.2,0.1l0.1,0c0.3,0.8,0.8,1.5,1.5,1.9l0,0.1c0,0,0,0.1,0,0.1
		c-0.1,0.1-0.1,0.3-0.2,0.4c-0.1,0.1-0.1,0.1-0.1,0.2c0,0,0,0,0,0.1c-0.1,0.1,0,0.3,0.1,0.4c0.1,0.1,0.3,0,0.4-0.1c0,0,0,0,0,0l0,0
		v0c0,0,0,0,0-0.1c0-0.1,0.1-0.2,0.1-0.2c0-0.2,0.1-0.3,0.2-0.5c0,0,0.1,0,0.1-0.1l0.1-0.1c0.8,0.3,1.6,0.3,2.4,0c0,0,0,0.1,0.1,0.1
		c0.1,0,0.1,0,0.1,0.1c0.1,0.1,0.1,0.3,0.2,0.4c0,0.1,0,0.2,0.1,0.2c0,0,0,0,0,0.1c0,0.1,0.2,0.2,0.3,0.2c0.1,0,0.2-0.2,0.2-0.3
		c0,0,0,0,0,0c0,0,0-0.1,0-0.1c0-0.1-0.1-0.1-0.1-0.2c-0.1-0.1-0.2-0.3-0.2-0.4c0-0.1,0-0.1,0-0.2c0,0,0-0.1,0-0.1
		c0.7-0.4,1.3-1.1,1.5-1.9c0,0,0.1,0,0.1,0c0,0,0.1-0.1,0.1-0.1c0.2,0,0.3,0.1,0.5,0.1c0.1,0,0.2,0.1,0.2,0.1c0,0,0,0,0.1,0
		c0,0,0,0,0,0l0,0c0.1,0,0.3,0,0.3-0.2C21,16,21,15.8,20.8,15.8C20.8,15.8,20.8,15.8,20.8,15.8L20.8,15.8z M18.3,13.1l-1.1,0.8l0,0
		c-0.1,0.1-0.2,0.1-0.3-0.1c0,0,0-0.1,0-0.1l0,0l-0.1-1.4C17.3,12.4,17.9,12.7,18.3,13.1L18.3,13.1z M16.2,14.6h0.4l0.3,0.3
		l-0.1,0.4l-0.4,0.2L16,15.3l-0.1-0.4L16.2,14.6z M15.8,12.4c0.1,0,0.2,0,0.3,0L16,13.7l0,0c0,0.1-0.1,0.2-0.2,0.2c0,0-0.1,0-0.1,0
		l0,0l-1.1-0.8C14.9,12.7,15.3,12.5,15.8,12.4L15.8,12.4z M14.1,13.6l1,0.9l0,0c0.1,0.1,0.1,0.2,0,0.3c0,0-0.1,0.1-0.1,0.1l0,0
		l-1.3,0.4C13.7,14.7,13.8,14.1,14.1,13.6z M15.5,16l-0.5,1.3c-0.5-0.3-0.9-0.8-1.1-1.4l1.3-0.2l0,0c0,0,0,0,0,0
		C15.4,15.7,15.5,15.8,15.5,16C15.5,16,15.5,16,15.5,16L15.5,16z M17,17.7c-0.5,0.1-1,0.1-1.5-0.1l0.7-1.2h0
		c0.1-0.1,0.2-0.2,0.3-0.1c0,0,0.1,0.1,0.1,0.1h0l0.7,1.2C17.2,17.6,17.1,17.6,17,17.7L17,17.7z M17.9,17.3L17.3,16l0,0
		c0-0.1,0-0.2,0.1-0.3c0,0,0.1,0,0.1,0c0,0,0,0,0.1,0l0,0l1.4,0.2C18.8,16.5,18.4,17,17.9,17.3L17.9,17.3z M19.1,15.3l-1.3-0.4l0,0
		c-0.1,0-0.2-0.2-0.2-0.3c0,0,0-0.1,0.1-0.1l0,0l1-0.9C19,14.1,19.2,14.7,19.1,15.3L19.1,15.3z"/>
	<path class="st8" d="M24.6,25.9L24.6,25.9l-1.4-6.2c-0.1-0.3-0.3-0.6-0.6-0.7l-5.8-2.8c-0.3-0.1-0.7-0.1-1,0l-5.8,2.8
		c-0.3,0.1-0.5,0.4-0.6,0.7l-1.4,6.2c0,0.2,0,0.3,0,0.5c0,0,0,0.1,0,0.1c0,0.1,0.1,0.2,0.1,0.2c0,0,0,0.1,0.1,0.1l4,5
		c0,0,0,0,0.1,0.1c0.1,0.1,0.1,0.1,0.2,0.2c0.1,0.1,0.2,0.1,0.3,0.1c0.1,0,0.2,0,0.3,0h0.1l6.3,0c0,0,0.1,0,0.1,0c0.1,0,0.1,0,0.2,0
		c0,0,0.1,0,0.1,0c0,0,0.1,0,0.1,0c0,0,0.1,0,0.1-0.1c0.1-0.1,0.2-0.1,0.3-0.2l0.1-0.2l3.9-4.8c0.1-0.1,0.1-0.2,0.2-0.3
		c0,0,0-0.1,0-0.1C24.7,26.2,24.7,26,24.6,25.9z M16.3,18.2c0,0,0.1,0,0.1,0C16.4,18.2,16.3,18.2,16.3,18.2z"/>
	<path class="st9" d="M21.9,25.1C21.9,25.1,21.8,25.1,21.9,25.1c-0.2,0-0.3,0-0.4,0c-0.2,0-0.4,0-0.6-0.1c-0.1,0-0.1-0.1-0.1-0.1
		l-0.1,0c0.1-1.1-0.1-2.1-0.7-3c0,0,0.1-0.1,0.1-0.1c0-0.1,0-0.1,0.1-0.2c0.2-0.1,0.3-0.3,0.5-0.4c0.1,0,0.2-0.1,0.3-0.2
		c0,0,0.1,0,0.1-0.1c0.2-0.1,0.2-0.3,0.1-0.5c-0.1-0.2-0.3-0.2-0.5-0.1c0,0,0,0-0.1,0c0,0-0.1,0-0.1,0.1c-0.1,0.1-0.2,0.2-0.2,0.2
		c-0.1,0.2-0.3,0.3-0.5,0.4c-0.1,0-0.1,0-0.2,0l-0.1,0.1c-0.7-0.8-1.7-1.3-2.8-1.4c0,0,0-0.1,0-0.2c-0.1,0-0.1-0.1-0.1-0.2
		c0-0.2,0-0.4,0-0.6c0-0.1,0-0.2,0-0.3c0,0,0-0.1,0-0.1c0-0.2-0.1-0.4-0.3-0.4c-0.2,0-0.4,0.1-0.4,0.3c0,0,0,0,0,0.1c0,0,0,0,0,0
		c0,0,0,0.1,0,0.1c0,0.1,0,0.2,0,0.3c0,0.2,0,0.4,0,0.6c0,0.1-0.1,0.1-0.1,0.2l0,0.1c-0.2,0-0.4,0-0.6,0.1c-0.8,0.2-1.6,0.6-2.2,1.3
		c0,0-0.1-0.1-0.1-0.1c-0.1,0-0.1,0-0.2,0c-0.2-0.1-0.3-0.3-0.5-0.4c-0.1-0.1-0.1-0.2-0.2-0.2c0,0-0.1,0-0.1-0.1
		c-0.1-0.1-0.1-0.1-0.2-0.1c-0.1,0-0.2,0-0.3,0.1c-0.1,0.2-0.1,0.4,0.1,0.5l0,0c0,0,0,0,0.1,0.1c0.1,0.1,0.2,0.1,0.3,0.2
		c0.2,0.1,0.3,0.2,0.5,0.4c0,0.1,0.1,0.1,0.1,0.2l0.1,0.1c-0.6,0.9-0.8,2-0.7,3.1l-0.1,0c0,0.1-0.1,0.1-0.1,0.1
		c-0.2,0.1-0.4,0.1-0.6,0.1c-0.1,0-0.2,0-0.3,0c0,0-0.1,0-0.1,0l0,0l0,0c-0.2,0-0.3,0.2-0.3,0.4c0,0.2,0.2,0.3,0.4,0.3
		c0,0,0,0,0.1,0l0,0c0,0,0,0,0,0c0,0,0.1,0,0.1,0c0.1,0,0.2-0.1,0.3-0.1c0.2-0.1,0.4-0.1,0.6-0.2c0.1,0,0.1,0,0.2,0.1l0.1,0
		c0.3,1,1,1.9,1.9,2.4l-0.1,0.1c0,0.1,0,0.1,0,0.2c-0.1,0.2-0.2,0.4-0.3,0.5c-0.1,0.1-0.1,0.2-0.2,0.3c0,0,0,0.1,0,0.1
		c-0.1,0.2,0,0.4,0.1,0.5c0.2,0.1,0.4,0,0.5-0.1c0,0,0,0,0-0.1l0,0v0c0,0,0-0.1,0-0.1c0-0.1,0.1-0.2,0.1-0.3
		c0.1-0.2,0.1-0.4,0.3-0.6c0,0,0.1-0.1,0.1-0.1l0.1-0.1c1,0.4,2.1,0.4,3.1,0c0,0,0.1,0.1,0.1,0.1c0.1,0,0.1,0,0.2,0.1
		c0.1,0.2,0.2,0.4,0.2,0.6c0,0.1,0.1,0.2,0.1,0.3c0,0,0,0.1,0,0.1c0.1,0.2,0.3,0.3,0.4,0.2c0.2-0.1,0.3-0.3,0.2-0.4c0,0,0,0,0-0.1
		c0,0,0-0.1,0-0.1c-0.1-0.1-0.1-0.2-0.2-0.3c-0.1-0.2-0.2-0.3-0.3-0.5c0-0.1,0-0.1,0-0.2c0,0,0-0.1-0.1-0.1c0.9-0.6,1.6-1.4,1.9-2.5
		c0,0,0.1,0,0.1,0c0.1,0,0.1-0.1,0.2-0.1c0.2,0,0.4,0.1,0.6,0.2c0.1,0,0.2,0.1,0.3,0.1c0,0,0.1,0,0.1,0c0,0,0,0,0,0l0,0
		c0.2,0.1,0.4,0,0.4-0.2C22.2,25.4,22.1,25.2,21.9,25.1C21.9,25.2,21.9,25.1,21.9,25.1L21.9,25.1z M18.7,21.7l-1.4,1l0,0
		c-0.1,0.1-0.3,0.1-0.4-0.1c0,0-0.1-0.1-0.1-0.2l0,0l-0.1-1.8C17.4,20.8,18.1,21.2,18.7,21.7z M16,23.6h0.5l0.3,0.4l-0.1,0.5
		l-0.5,0.2l-0.5-0.2l-0.1-0.5L16,23.6z M15.4,20.8c0.1,0,0.2,0,0.4-0.1l-0.1,1.8l0,0c0,0.2-0.1,0.3-0.3,0.3c-0.1,0-0.1,0-0.2-0.1
		l0,0l-1.5-1C14.2,21.2,14.8,20.9,15.4,20.8L15.4,20.8z M13.2,22.4l1.3,1.2l0,0c0.1,0.1,0.1,0.3,0,0.4c0,0-0.1,0.1-0.1,0.1l0,0
		l-1.7,0.5C12.7,23.8,12.8,23,13.2,22.4L13.2,22.4z M15,25.5l-0.7,1.6c-0.6-0.4-1.1-1-1.4-1.8l1.7-0.3l0,0c0,0,0,0,0.1,0
		c0.2,0,0.3,0.1,0.3,0.3C15,25.4,15,25.5,15,25.5L15,25.5z M17,27.6c-0.6,0.1-1.3,0.1-1.9-0.1L16,26h0c0.1-0.1,0.3-0.2,0.4-0.1
		c0.1,0,0.1,0.1,0.1,0.1h0l0.9,1.6C17.2,27.6,17.1,27.6,17,27.6L17,27.6z M18.1,27.2l-0.7-1.7l0,0c-0.1-0.1,0-0.3,0.1-0.4
		c0,0,0.1,0,0.1,0c0,0,0,0,0.1,0l0,0l1.8,0.3C19.3,26.1,18.8,26.7,18.1,27.2L18.1,27.2z M19.7,24.6L18,24.1l0,0
		c-0.2,0-0.3-0.2-0.2-0.4c0-0.1,0-0.1,0.1-0.1l0,0l1.3-1.2C19.6,23,19.8,23.8,19.7,24.6L19.7,24.6z"/>
</g>
</svg>
