<?xml version="1.0" encoding="utf-8"?>
<!-- Generator: Adobe Illustrator 25.4.0, SVG Export Plug-In . SVG Version: 6.00 Build 0)  -->
<svg version="1.1" id="Layer_1" xmlns="http://www.w3.org/2000/svg" xmlns:xlink="http://www.w3.org/1999/xlink" x="0px" y="0px"
	 viewBox="0 0 37.9 38" style="enable-background:new 0 0 37.9 38;" xml:space="preserve">
<style type="text/css">
	.st0{fill:#2F2F30;}
	.st1{fill:#495061;}
	.st2{fill:#EBCFC2;}
	.st3{fill:#4189C6;}
	.st4{fill:#F5E0D4;}
	.st5{fill:#FFFFFF;}
	.st6{fill:#333333;}
	.st7{fill:#B08F7E;}
	.st8{fill:#979A9B;}
	.st9{fill:#D5AD98;}
	.st10{fill:#3373AA;}
</style>
<g id="bkg">
	<path class="st0" d="M29.4,38H8.6C3.9,38,0,34.1,0,29.4V8.6C0,3.9,3.9,0,8.6,0h20.7c4.8,0,8.6,3.9,8.6,8.6v20.7
		C38,34.1,34.1,38,29.4,38z"/>
</g>
<g>
	<g>
		<path class="st1" d="M30.8,32.9c0,0,0.1-2-1.4-3.3c-1.5-1.3-5.2-2.9-10.5-2.8c-5.4,0.1,2.1,6,2.1,6L30.8,32.9z"/>
		<path class="st1" d="M7.1,32.9c0,0-0.1-2,1.4-3.3c1.5-1.3,5.2-2.9,10.5-2.8c5.4,0.1-2.1,6-2.1,6l-6.1,0.1
			C10.8,32.8,7.1,32.9,7.1,32.9z"/>
	</g>
	<path class="st2" d="M12.3,16c0,0-0.7-0.3-1.2,0c-0.5,0.3-0.7,1.7-0.3,2.3c0.4,0.6,0.9,1.4,1.4,1.4c0.5,0.1,1-0.1,1-0.1L13,17.8
		L12.3,16L12.3,16z M25.2,16c0,0,0.7-0.3,1.2,0c0.5,0.3,0.7,1.7,0.3,2.3c-0.4,0.6-0.9,1.3-1.4,1.4c-0.5,0.1-1-0.1-1-0.1l0.2-1.9
		L25.2,16L25.2,16z"/>
	<path class="st3" d="M25.8,19.3c0.2,0,0.4,0.2,0.4,0.4c0,0.2-0.2,0.4-0.4,0.4c0,0,0,0,0,0c-0.2,0-0.4-0.2-0.4-0.4
		C25.3,19.5,25.5,19.3,25.8,19.3z"/>
	<path class="st4" d="M22,24.5h-6.5v4.9l3.3,1.5l3.3-1.5V24.5z"/>
	<path class="st4" d="M18.5,6.7c4.1-0.1,6.4,2,7.4,5.1c1.2,3.8-0.6,8.1-2,10.6c-0.6,1-1.1,2-2,2.6c-0.6,0.4-1.5,0.7-2.4,0.9
		c-1.1,0.2-2.7-0.2-3.3-0.6c-2.2-1.3-4-5.7-4.6-8.6c-0.3-1.3-0.2-3.3,0.1-4.5c0.7-2.4,2-4.1,4.2-4.9C16.4,7,17,6.9,17.7,6.7
		C17.9,6.7,18.2,6.7,18.5,6.7L18.5,6.7z"/>
	<path class="st5" d="M15.8,15.2c0.8,0,1.4,0.6,1.4,1.4c0,0.8-0.6,1.4-1.4,1.4c-0.8,0-1.4-0.6-1.4-1.4C14.4,15.8,15,15.2,15.8,15.2z
		"/>
	<path class="st6" d="M16.3,16.5c0,0.3-0.3,0.6-0.6,0.6l0,0c-0.2,0-0.4-0.1-0.5-0.3c0,0,0.1,0,0.1,0c0.1,0,0.2-0.1,0.2-0.2
		s-0.1-0.2-0.2-0.2l0,0c-0.1,0-0.1,0-0.1,0c0.1-0.2,0.3-0.4,0.6-0.4C16.1,16,16.3,16.2,16.3,16.5C16.3,16.5,16.3,16.5,16.3,16.5
		L16.3,16.5z"/>
	<path class="st5" d="M22,15.2c0.8,0,1.4,0.6,1.4,1.4c0,0.8-0.6,1.4-1.4,1.4s-1.4-0.6-1.4-1.4C20.6,15.8,21.2,15.2,22,15.2z"/>
	<path class="st6" d="M22.5,16.5c0,0.3-0.3,0.6-0.6,0.6c0,0,0,0,0,0c-0.2,0-0.4-0.1-0.5-0.3c0,0,0.1,0,0.1,0c0.1,0,0.2-0.1,0.2-0.2
		s-0.1-0.2-0.2-0.2c-0.1,0-0.1,0-0.1,0c0.1-0.2,0.3-0.4,0.6-0.4C22.2,16,22.5,16.2,22.5,16.5C22.5,16.5,22.5,16.5,22.5,16.5
		L22.5,16.5z"/>
	<path class="st3" d="M18.2,16.6h1.5v0.6h-1.5V16.6z"/>
	<path class="st3" d="M17.7,14.7h-3.9c-0.3,0-0.5,0.2-0.5,0.5c0,0,0,0,0,0v3c0,0.3,0.2,0.5,0.5,0.5c0,0,0,0,0,0h3.9
		c0.3,0,0.5-0.2,0.5-0.5c0,0,0,0,0,0v-3C18.2,14.9,18,14.7,17.7,14.7C17.7,14.7,17.7,14.7,17.7,14.7L17.7,14.7z M17.6,17.8
		c0,0.2-0.2,0.4-0.4,0.4h-3c-0.2,0-0.4-0.2-0.4-0.4v-2.2c0-0.2,0.2-0.4,0.4-0.4h3c0.2,0,0.4,0.2,0.4,0.4V17.8z M23.9,14.7h-3.9
		c-0.3,0-0.5,0.2-0.5,0.5c0,0,0,0,0,0v3c0,0.3,0.2,0.5,0.5,0.5c0,0,0,0,0,0h3.9c0.3,0,0.5-0.2,0.5-0.5c0,0,0,0,0,0v-3
		C24.4,14.9,24.1,14.7,23.9,14.7L23.9,14.7z M23.8,17.8c0,0.2-0.2,0.4-0.4,0.4h-3c-0.2,0-0.4-0.2-0.4-0.4v-2.2
		c0-0.2,0.2-0.4,0.4-0.4h3c0.2,0,0.4,0.2,0.4,0.4V17.8z"/>
	<path class="st7" d="M15.9,12.9c-1.5,0-2.3,0.5-2.3,1c0,0.5,0.8,0.4,1.4,0.1c0.6-0.2,1.3-0.2,1.7,0c0.3,0.2,1,0.3,1-0.2
		C17.7,13.3,16.4,12.9,15.9,12.9L15.9,12.9z M21.8,12.9c1.5,0,2.3,0.5,2.3,1c0,0.5-0.8,0.4-1.4,0.1c-0.6-0.2-1.3-0.2-1.7,0
		c-0.3,0.2-1,0.3-1-0.2C20,13.3,21.3,12.9,21.8,12.9L21.8,12.9z M25.5,18.9c-0.5,1.3-1,2.5-1.6,3.4c-0.6,1-1.1,2-2,2.6
		c-0.6,0.4-1.5,0.7-2.4,0.9c-1.1,0.2-2.7-0.2-3.3-0.6c-1.6-0.9-3-3.4-3.8-5.9c0-0.2,0-0.3,0-0.5c0,0,0,0,0.1,0
		c0.4-0.1,0.7,0.2,0.9,0.4c0.7,0.5,1.2,1.2,1.8,1.8c-0.1-0.5,0.3-1.6,0.8-1.1c0.2,0.2,0,0.7,0.1,1c1.1,0.7,1.2-0.6,1.7-0.8
		c0.3-0.1,0.7,0.2,1,0.3c0.6,0.1,0.8-0.3,1.3-0.3c0.5,0.3,0.5,1.2,1.3,1c0.2,0,0.3,0,0.4-0.2c0.2-0.3-0.1-0.8,0.1-1
		c0.2-0.2,0.2,0,0.3,0c0.4,0.2,0.7,0.7,0.5,1.2c0.2-0.2,0.4-0.4,0.6-0.7c0.6-0.6,1.2-1.1,2-1.5C25.3,18.8,25.3,18.8,25.5,18.9
		C25.4,18.9,25.4,18.9,25.5,18.9L25.5,18.9z"/>
	<path class="st2" d="M17,21.9c0,0,0.5,0.9,1.9,0.8c1.4,0,1.8-0.8,1.8-0.8s-0.9-0.3-1.6-0.3c-0.3,0-0.6,0.2-1,0.2
		C17.6,21.9,17,21.9,17,21.9L17,21.9z"/>
	<path class="st8" d="M21.1,25.6c-0.4,0.1-0.7,0.3-1.1,0.4c0.1,0.5,0.1,1,0.2,1.5c0.3,0.2,0.6,0.3,1,0.5c0.3-0.2,0.6-0.3,0.8-0.5
		v-1.7C21.7,25.8,21.4,25.7,21.1,25.6L21.1,25.6z M21.7,27.4c0,0-0.2-0.3-0.2-0.3h-0.6c-0.1,0.1-0.1,0.2-0.2,0.3h-0.3
		c0.2-0.5,0.7-1.5,0.7-1.5l0.7,1.5L21.7,27.4z"/>
	<path class="st8" d="M21.4,26.8H21l0.2-0.5L21.4,26.8L21.4,26.8z M17.1,25.8c-0.3-0.1-0.8,0-1.2,0c-0.1,0.1-0.3,0.2-0.4,0.4
		c0,0.3,0,1.2,0,1.5c0.1,0.1,0.2,0.3,0.3,0.3H17c0.2-0.1,0.2-0.3,0.3-0.5c0.1-0.2,0.2-0.4,0.3-0.5C17.8,26.8,17.2,26,17.1,25.8
		L17.1,25.8z M16.4,26.2h0.1c0,0,0,0,0,0.1l0,0.7c-0.1,0-0.1,0.1-0.1,0C16.3,26.9,16.3,26.3,16.4,26.2z M16.6,27.6
		c-0.8,0.2-0.9-0.7-0.7-1.1c0,0,0.1-0.1,0.1-0.1l0.1,0l0,0.1c-0.2,0.3-0.5,0.8,0.1,1c0.7,0.2,0.8-0.7,0.4-1v-0.1l0.1-0.1
		C17.3,26.6,17.1,27.4,16.6,27.6L16.6,27.6z"/>
	<path class="st5" d="M22.1,27l-3.5,4.1l2.2,0.5l2.4-2.7c0,0,0-0.8-0.2-1.1C22.7,27.4,22.1,27,22.1,27L22.1,27z"/>
	<path class="st5" d="M15.5,27l3.5,4.1l-2.2,0.5l-2.4-2.7c0,0,0-0.8,0.2-1.1C14.9,27.4,15.5,27,15.5,27L15.5,27z"/>
	<path class="st7" d="M11.4,15.5c0,0,0.4-1,0.4-1.4c0-0.4,0.3-2.8,1.2-3.9c0.6-0.9,1.4-1,2.2-0.8c0.8,0.2,1.7,0.7,2.7,0.5
		c0.9-0.1,3.3-1.3,4.3-0.9s2.6,1.3,2.8,2.8c0.2,1.5,1.3,3.9,1.3,3.9s0.6-3.9,0.6-4.9c0-1-2.7-4.1-3.2-4.7c-0.6-0.6-2.3-2.2-3.4-2.1
		C19,4.1,17.6,4.9,17,5c-0.6,0.1-0.9-0.2-1.5-0.1c-0.6,0.1-1.3,0.1-3.1,2c-1.9,2-1.7,4.9-1.5,6.5C10.9,15.1,11.4,15.5,11.4,15.5
		L11.4,15.5z"/>
	<path class="st9" d="M16.5,9.2c0,0-0.5-0.7,0.1-2c0.6-1.3,0.6-1.9,0.6-1.9s-0.3,0.8-0.8,1.9C16,8.3,16.5,9.2,16.5,9.2z M18.2,9.4
		c0,0,1.3-1.5,2.2-2.2s1.9-1.4,1.9-1.4S21.4,6,20.2,7C18.9,8.1,18.2,9.4,18.2,9.4z M17.3,9.2c0,0,0-1.4,0.7-3
		C18.6,4.7,20,4.4,20,4.4s-1,0.5-1.7,1.8S17.3,9.2,17.3,9.2L17.3,9.2z"/>
	<g>
		<path class="st10" d="M19.6,31.6c0,0-5.1-3-5.6-1.1c-0.4,1.9-0.9,3.3,0.4,3.5C15.9,34.2,19.6,31.6,19.6,31.6z"/>
		<path class="st3" d="M18.8,31.1c1.5-0.8,4.4-2.1,4.7-0.7c0.4,1.9,1,3.3-0.4,3.5c-1,0.2-3.1-1.1-4.3-1.8
			C18.8,31.2,18.8,32,18.8,31.1L18.8,31.1z"/>
	</g>
</g>
</svg>
