<?xml version="1.0" encoding="utf-8"?>
<!-- Generator: Adobe Illustrator 25.4.0, SVG Export Plug-In . SVG Version: 6.00 Build 0)  -->
<svg version="1.1" xmlns="http://www.w3.org/2000/svg" xmlns:xlink="http://www.w3.org/1999/xlink" x="0px" y="0px"
	 viewBox="0 0 37.9 38" style="enable-background:new 0 0 37.9 38;" xml:space="preserve">
<style type="text/css">
	.st0{fill:#DE4C36;}
	.st1{fill:#FFFFFF;}
</style>
<g id="bkg">
	<path class="st0" d="M29.4,38H8.6C3.9,38,0,34.1,0,29.4V8.6C0,3.9,3.9,0,8.6,0h20.7c4.8,0,8.6,3.9,8.6,8.6v20.7
		C38,34.1,34.1,38,29.4,38z"/>
</g>
<g id="Layer_3">
	<path class="st1" d="M32.6,17.7L20.2,5.4c-0.7-0.7-1.9-0.7-2.6,0l-2.6,2.6l3.3,3.3c0.8-0.3,1.6-0.1,2.2,0.5
		c0.6,0.6,0.8,1.5,0.5,2.2l3.1,3.1c0.8-0.3,1.6-0.1,2.2,0.5c0.8,0.8,0.8,2.2,0,3.1c-0.8,0.8-2.2,0.8-3.1,0c-0.6-0.6-0.8-1.6-0.5-2.4
		L20,15.4l0,7.7c0.2,0.1,0.4,0.2,0.6,0.4c0.8,0.8,0.8,2.2,0,3.1c-0.8,0.8-2.2,0.8-3.1,0c-0.8-0.8-0.8-2.2,0-3.1
		c0.2-0.2,0.4-0.4,0.7-0.5v-7.8c-0.3-0.1-0.5-0.3-0.7-0.5c-0.6-0.6-0.8-1.6-0.5-2.4l-3.2-3.2l-8.5,8.5c-0.7,0.7-0.7,1.9,0,2.6
		l12.4,12.4c0.7,0.7,1.9,0.7,2.6,0l12.3-12.3C33.3,19.6,33.3,18.5,32.6,17.7"/>
</g>
</svg>
