<?xml version="1.0" encoding="utf-8"?>
<!-- Generator: Adobe Illustrator 25.4.0, SVG Export Plug-In . SVG Version: 6.00 Build 0)  -->
<svg version="1.1" id="Layer_1" xmlns="http://www.w3.org/2000/svg" xmlns:xlink="http://www.w3.org/1999/xlink" x="0px" y="0px"
	 viewBox="0 0 37.9 38" style="enable-background:new 0 0 37.9 38;" xml:space="preserve">
<style type="text/css">
	.st0{fill:#231F20;}
	.st1{fill:#D33833;}
	.st2{fill:#EF3D3A;}
	.st3{fill:#F0D6B7;}
	.st4{fill:#335061;}
	.st5{fill:#6D6B6D;}
	.st6{fill:#DCD9D8;}
	.st7{fill:#F7E4CD;}
	.st8{fill:#49728B;}
	.st9{fill:#FFFFFF;}
	.st10{fill:none;}
	.st11{fill:#81B0C4;}
	.st12{fill:#1D1919;}
</style>
<g id="Layer_1_00000005986681103818449360000007804609034820659075_">
	<g id="Layer_1_00000154386492545488396280000012159222154907207566_">
		<g id="bkg">
			<path class="st0" d="M29.4,38H8.6C3.9,38,0,34.1,0,29.4V8.6C0,3.9,3.9,0,8.6,0h20.7c4.8,0,8.6,3.9,8.6,8.6v20.7
				C38,34.1,34.1,38,29.4,38z"/>
		</g>
	</g>
</g>
<g>
	<path class="st1" d="M29.5,18.5c0,5.9-4.7,10.8-10.5,10.8c-5.8,0-10.5-4.8-10.5-10.8c0-5.9,4.7-10.8,10.5-10.8
		C24.8,7.7,29.5,12.5,29.5,18.5"/>
	<path class="st2" d="M8.9,21.1c0,0-0.8-11.2,9.6-11.5l-0.7-1.2l-5.6,1.9l-1.6,1.8l-1.4,2.7l-0.8,3.1L8.5,20"/>
	<path class="st0" d="M11.7,11.1c-1.8,1.9-3,4.5-3,7.4c0,2.9,1.1,5.5,3,7.4c1.8,1.9,4.4,3.1,7.2,3.1c2.8,0,5.4-1.2,7.2-3.1
		c1.8-1.9,3-4.5,3-7.4c0-2.9-1.1-5.5-3-7.4c-1.8-1.9-4.4-3.1-7.2-3.1C16.1,8.1,13.6,9.2,11.7,11.1L11.7,11.1z M11.3,26.3
		c-2-2-3.2-4.8-3.2-7.8c0-3.1,1.2-5.8,3.2-7.8c2-2,4.7-3.3,7.7-3.3c3,0,5.7,1.2,7.7,3.3c2,2,3.2,4.8,3.2,7.8c0,3.1-1.2,5.8-3.2,7.8
		c-2,2-4.7,3.3-7.7,3.3C16,29.6,13.2,28.3,11.3,26.3"/>
	<path class="st3" d="M23.4,18.5l-1.6,0.2L19.6,19l-1.4,0l-1.4,0l-1-0.3l-0.9-1l-0.7-2L14,15.2l-1-0.3l-0.6-0.9l-0.4-1.3l0.4-1.2
		l1-0.4l0.8,0.4l0.4,0.9l0.5-0.1l0.2-0.2l-0.2-0.9l0-1.2l0.2-1.6l0-0.9l0.7-1.2l1.3-0.9l2.2-1l2.5,0.4l2.2,1.6l1,1.6L26,9.1l0.2,2.9
		l-0.5,2.5l-0.9,2.2L24,17.9"/>
	<path class="st4" d="M22,25.5l-5.7,0.2v1l0.5,3.4l-0.2,0.3l-4-1.4l-0.3-0.5l-0.4-4.5l-0.9-2.7l-0.2-0.6l3.2-2.2l1-0.4l0.9,1.1
		l0.8,0.7l0.9,0.3l0.4,0.1l0.5,2.1l0.4,0.4l0.9-0.3L19,23.6l3.5,1.6L22,25.5"/>
	<path class="st5" d="M12.5,11.5l1-0.4l0.8,0.4l0.4,0.9l0.5-0.1l0.1-0.5l-0.2-0.9l0.2-2.2l-0.2-1.2l0.7-0.8l1.6-1.2L17,4.8l-2.2,1.1
		l-0.9,0.7l-0.5,1.1l-0.8,1.1l-0.2,1.3L12.5,11.5"/>
	<path class="st6" d="M14.2,7.7c0,0,0.6-1.5,3-2.2S17.3,5,17.3,5l-2.6,1l-1,1l-0.4,0.8L14.2,7.7 M13,11.2c0,0-0.8-2.8,2.4-3.2
		l-0.1-0.5L13,8l-0.6,2.1l0.2,1.4L13,11.2"/>
	<path class="st7" d="M14.2,14.9l0.5-0.5c0,0,0.2,0,0.3,0.3c0,0.3,0.2,2.8,1.9,4.2c0.2,0.1-1.3-0.2-1.3-0.2l-1.3-2 M21.6,14.1
		c0,0,0.1-1.2,0.4-1.1c0.3,0.1,0.3,0.4,0.3,0.4S21.6,14,21.6,14.1 M24.9,9.7c0,0-0.7,0.1-0.7,0.7c-0.1,0.6,0.7,0.1,0.8,0.1
		 M20.1,9.7c0,0-0.9,0.1-0.9,0.7c0,0.6,1,0.5,1.3,0.3 M14.6,12.3c0,0-1.5-0.9-1.7,0c-0.2,0.9-0.5,1.5,0.2,2.4l-0.5-0.2l-0.5-1.2
		L12,12.1l0.9-1l1,0.1l0.6,0.5L14.6,12.3 M15.4,9.8c0,0,0.7-3.5,4.1-4.2c2.8-0.6,4.3,0.1,4.9,0.8c0,0-2.5-3-4.9-2.1
		C17,5.2,15.3,6.9,15.3,8C15.4,9.8,15.4,9.8,15.4,9.8 M24.7,6.8c0,0-1.2,0-1.2,1c0,0,0,0.2,0.1,0.3c0,0,0.9-1,1.5-0.5"/>
	<path class="st7" d="M19.6,8.2c0,0-0.2-1.6-1.6-0.7c-0.9,0.6-0.8,1.4-0.6,1.6c0.2,0.2,0.1,0.5,0.2,0.3c0.1-0.2,0.1-0.9,0.5-1.1
		C18.6,8.1,19.3,7.8,19.6,8.2"/>
	<path class="st8" d="M15.8,19L12,20.7c0,0,1.6,6.2,0.8,8.1l-0.6-0.2l0-2.4l-1-4.5l-0.4-1.2l3.9-2.6L15.8,19 M16.2,22.5l0.5,0.7v2.4
		h-0.6c0,0-0.1-1.7-0.1-1.9s0.1-0.9,0.1-0.9 M16.2,25.9L14.4,26l0.5,0.4l1.3,0.2"/>
	<path class="st4" d="M22.4,25.5l1.5,0l0.4,3.7l-1.5,0.2L22.4,25.5"/>
	<path class="st4" d="M22.8,25.5l2.2-0.1c0,0,0.9-2.3,0.9-2.4c0-0.1,0.8-3.4,0.8-3.4l-1.8-1.9l-0.4-0.3l-1,1V22L22.8,25.5"/>
	<path class="st8" d="M23.8,25.2l-1.4,0.3l0.2,1.1c0.5,0.2,1.4-0.4,1.4-0.4 M23.8,18.2l2.8,2.1l0.1-1l-2.1-2L23.8,18.2"/>
	<path class="st9" d="M17.6,33.4L16.8,30l-0.4-2.5l-0.1-1.8l3.8-0.2l2.3,0l-0.2,4.2l0.4,3.2l0,0.6l-3,0.2L17.6,33.4"/>
	<path class="st6" d="M21.9,25.5c0,0-0.2,4.2,0.4,7.1c0,0-1.2,0.8-3,1l3.4-0.1l0.4-0.2l-0.5-6.6l-0.1-1.4"/>
	<path class="st9" d="M24.3,28.8l1.6-0.4l3-0.2l0.4-1.4l-0.8-2.4l-0.9-0.1l-1.3,0.4L25,25.4l-0.7-0.1l-0.5,0.2"/>
	<path class="st6" d="M24.3,28c0,0,1-0.5,1.2-0.4L25,25.4l0.5-0.2c0,0,0.4,2.1,0.4,2.3c0,0,2.2,0.1,2.4,0.1c0,0,0.5-0.9,0.4-1.9
		l0.4,1.3l0,0.7l-0.6,1l-0.7,0.2l-1.2,0l-0.4-0.5l-1.4,0.2l-0.4,0.2"/>
	<path class="st9" d="M22.7,25.2l-0.9-2.2l-0.9-1.3c0,0,0.2-0.6,0.5-0.6h0.9l0.9,0.3l-0.1,1.5L22.7,25.2"/>
	<path class="st6" d="M22.9,24.4c0,0-1.1-2.2-1.1-2.5c0,0,0.2-0.5,0.5-0.4c0.3,0.1,0.9,0.4,0.9,0.4v-0.8L21.7,21l-0.9,0.1l1.6,3.7
		l0.3,0"/>
	<path class="st9" d="M18,19.1L16.8,19l-1-0.3V19l0.5,0.6l1.6,0.7"/>
	<path class="st6" d="M16.2,19.2c0,0,1.2,0.5,1.6,0.4l0,0.5l-1.1-0.2L16,19.4L16.2,19.2"/>
	<path class="st1" d="M24.3,21.2c-0.7,0-1.3-0.1-1.8-0.3c0-0.2,0-0.4,0-0.6c0.1-0.1,0.4-0.1,0.6-0.1c-0.2-0.1-0.5-0.1-0.7-0.1
		c0-0.2-0.1-0.2-0.1-0.4c0.4-0.1,1.3-1,1.8-0.7c0.2,0.1,0.3,0.9,0.4,1.3C24.5,20.7,24.4,21,24.3,21.2"/>
	<path class="st10" d="M24.3,21.2c-0.7,0-1.3-0.1-1.8-0.3c0-0.2,0-0.4,0-0.6c0.1-0.1,0.4-0.1,0.6-0.1c-0.2-0.1-0.5-0.1-0.7-0.1
		c0-0.2-0.1-0.2-0.1-0.4c0.4-0.1,1.3-1,1.8-0.7c0.2,0.1,0.3,0.9,0.4,1.3C24.5,20.7,24.4,21,24.3,21.2L24.3,21.2z"/>
	<path class="st1" d="M21,20.1c0,0.1,0,0.1,0,0.2c-0.2,0.1-0.6,0.1-0.8,0.3c0.3,0,0.6,0.1,0.8,0.2l0,0.4c-0.4,0.3-0.7,0.7-1.2,0.9
		c-0.2,0.1-1,0.4-1.2,0.4c-0.1,0-0.1-0.2-0.2-0.3c-0.1-0.3-0.4-0.8-0.4-1.3c0-0.6-0.1-1.7,0.6-1.5c0.5,0.1,1.2,0.4,1.6,0.6
		C20.5,19.9,20.6,20,21,20.1"/>
	<path class="st10" d="M21,20.1c0,0.1,0,0.1,0,0.2c-0.2,0.1-0.6,0.1-0.8,0.3c0.3,0,0.6,0.1,0.8,0.2l0,0.4c-0.4,0.3-0.7,0.7-1.2,0.9
		c-0.2,0.1-1,0.4-1.2,0.4c-0.1,0-0.1-0.2-0.2-0.3c-0.1-0.3-0.4-0.8-0.4-1.3c0-0.6-0.1-1.7,0.6-1.5c0.5,0.1,1.2,0.4,1.6,0.6
		C20.5,19.9,20.6,20,21,20.1L21,20.1z"/>
	<path class="st1" d="M21.4,20.8c-0.1-0.3-0.1-0.4-0.1-0.7C22.2,19.5,22.4,21.1,21.4,20.8"/>
	<path class="st10" d="M21.4,20.8c-0.1-0.3-0.1-0.4-0.1-0.7C22.2,19.5,22.4,21.1,21.4,20.8L21.4,20.8z"/>
	<path class="st2" d="M22.7,21.1c0,0-0.3-0.4-0.1-0.5c0.2-0.1,0.4,0,0.5-0.2c0.1-0.2,0-0.3,0-0.6c0-0.2,0.2-0.3,0.4-0.3
		c0.2,0,0.8-0.1,0.8,0.1l-0.2-0.7l-0.5-0.2l-1.5,0.9L22.2,20v0.9 M18.5,22.4c0-0.6-0.1-1.3-0.2-1.9c-0.1-0.9,0.2-0.8,1-0.8
		c0.1,0,0.8,0.1,0.8,0.2c0.2,0.4-0.4,0.3,0.3,0.7c0.5,0.3,1.4-0.2,1.2-0.8c-0.1-0.1-0.6,0-0.8-0.1L20,19.3c-0.4-0.2-1.3-0.5-1.7-0.2
		c-1.1,0.7,0.1,2.6,0.5,3.3"/>
	<path class="st0" d="M19.6,8.2c-1.1-0.3-1.6,0.5-2,1.2c-0.3-0.1-0.2-0.5-0.1-0.7c0.2-0.5,1-1.3,1.6-1.2C19.4,7.6,19.8,7.9,19.6,8.2
		 M24.9,9.4L24.9,9.4c0.3,0.5,0.5,1.1,0.8,1.5c-0.2,0.5-1.6,0.9-1.6,0c0.3-0.1,0.8,0,1.1-0.2C25.1,10.4,24.9,10,24.9,9.4 M20.1,9.5
		c0.2,0.4,0.3,0.9,0.6,1.2c0.1,0.1,0.4,0.3,0.3,0.7c0,0.1-0.3,0.3-0.4,0.4c-0.5,0.2-1.7,0-1.3-0.6c0.4,0,1,0.3,1.3,0
		C20.4,10.7,20,9.9,20.1,9.5 M24.7,13.8c-0.8,0.5-1.7,1.1-2.9,0.9c-0.3-0.2-0.4-0.8-0.1-1.1c0.1,0.2,0.1,0.7,0.4,0.7
		c0.7,0.1,1.6-0.4,2.1-0.6c0.3-0.5,0-0.7-0.3-1.1c-0.6-0.7-1.4-1.6-1.4-2.7c0.2-0.2,0.3,0.3,0.3,0.3c0.3,0.7,1.1,1.7,1.7,2.3
		c0.1,0.2,0.4,0.3,0.4,0.4C24.9,13.3,24.7,13.6,24.7,13.8 M14.4,13.3c-0.2-0.1-0.3-0.8-0.6-0.8c-0.4,0-0.3,0.8-0.3,1.3
		c-0.3-0.3-0.3-1.1-0.1-1.5c-0.2-0.1-0.3,0.1-0.5,0.2C13,11.3,14.6,12,14.4,13.3 M25.2,14.3c-0.4,0.7-0.9,1.5-2,1.5
		c0-0.2,0-0.6,0-0.7C24.1,15,24.6,14.6,25.2,14.3 M20.1,14.8c0.7,0.4,1.9,0.4,2.9,0.4c0,0.2,0,0.5,0.1,0.7
		C21.8,15.9,20.4,15.6,20.1,14.8 M19.9,15.5c0.5,1.2,2.1,1,3.5,1c-0.1,0.2-0.2,0.3-0.4,0.4c-0.4,0.2-1.6,0.3-2.3,0
		c-0.4-0.2-0.6-0.7-0.8-0.9C19.8,15.8,19.3,15.5,19.9,15.5"/>
	<path class="st11" d="M24.6,22c-0.6,0.9-1.1,1.9-1.7,2.8c0.3-0.8,0.4-2.2,0.4-3.2C23.9,21.3,24.4,21.6,24.6,22"/>
	<path class="st0" d="M27.6,25.4c-0.6,0.1-1.1,0.7-1.7,0.7C26.3,25.6,26.9,25.4,27.6,25.4 M27.9,26.4c-0.5,0.1-1.1,0.1-1.6,0.1
		C26.5,26.1,27.5,26.2,27.9,26.4 M28.1,27.2c-0.6,0-1.3,0-1.8,0C26.6,26.8,27.7,27,28.1,27.2"/>
	<path class="st6" d="M23.6,29.5c0.1,0.7,0.4,1.4,0.3,2.2c-0.3,0.1-0.5,0.2-0.9,0.2c0-0.7-0.1-1.7-0.1-2.3
		C23.1,29.6,23.4,29.5,23.6,29.5"/>
	<path class="st3" d="M22.7,19c-0.3,0.2-0.5,0.4-0.8,0.6c-0.6,0-0.9,0-1.4-0.4c0,0,0.1,0,0.1,0C21.2,19.5,22,19,22.7,19"/>
	<path class="st11" d="M19.2,23.4c0.2-0.8,0.9-1.2,1.5-1.6c0.7,0.8,1.1,1.9,1.5,2.9C21.2,24.4,20.2,23.9,19.2,23.4"/>
	<path class="st0" d="M22.9,29.6c0,0.6,0.1,1.6,0.1,2.3c0.4,0,0.6-0.1,0.9-0.2c0-0.8-0.2-1.5-0.3-2.2C23.4,29.5,23.1,29.6,22.9,29.6
		z M16.3,26c0.3,2.6,0.7,4.7,1.4,7c1.6,0.5,3.6,0.5,5.1,0.1c-0.3-1.3-0.1-2.8-0.3-4.2c-0.1-1-0.1-2.1-0.2-3.1
		C20.5,25.4,18.1,25.7,16.3,26L16.3,26z M22.7,25.8c0,1.1,0,2.2,0.1,3.3c0.4-0.1,0.7-0.1,1.1-0.2c-0.1-1.1-0.1-2.2-0.4-3.2
		C23.3,25.7,23,25.7,22.7,25.8L22.7,25.8z M24.8,25.6c-0.2,0-0.4,0-0.6,0c0.1,0.9,0.3,1.9,0.4,2.8c0.3,0,0.5-0.1,0.7-0.2
		C25.3,27.4,25.2,26.3,24.8,25.6z M28.1,28.6c0.6-0.2,1-0.9,0.8-1.7c-0.1-0.5-0.3-1.5-0.6-1.9c-0.2-0.3-0.6-0.6-1-0.3
		c-0.6,0.4-1.6,0.5-2,0.9c0.2,0.7,0.3,1.7,0.4,2.6c0.7,0,1.6-0.2,2.2,0.1c-0.4,0.1-1,0.1-1.3,0.3C26.9,28.7,27.6,28.7,28.1,28.6
		L28.1,28.6z M22.3,24.8c-0.4-1-0.8-2.1-1.5-2.9c-0.6,0.4-1.3,0.8-1.5,1.6C20.2,23.9,21.2,24.4,22.3,24.8L22.3,24.8z M23.3,21.6
		c0,1-0.2,2.4-0.4,3.2c0.7-0.8,1.2-1.8,1.7-2.8C24.4,21.6,23.9,21.3,23.3,21.6L23.3,21.6z M22.1,21.1c-0.2,0-0.5,0.3-0.8,0.2
		c-0.1,0.1-0.1,0.2-0.2,0.3c0.7,0.9,1,2.1,1.6,3.1c0.3-1,0.3-2,0.3-3.1C22.6,21.5,22.4,21.2,22.1,21.1L22.1,21.1z M21.3,20.1
		c0,0.3,0,0.4,0.1,0.7C22.4,21.1,22.2,19.5,21.3,20.1L21.3,20.1z M20.2,19.7c-0.4-0.2-1-0.5-1.6-0.6C18,19,18,20.1,18.1,20.7
		c0,0.5,0.3,1,0.4,1.3c0.1,0.2,0.1,0.3,0.2,0.3c0.2,0.1,1-0.3,1.2-0.4c0.5-0.2,0.8-0.6,1.2-0.9c0-0.1,0-0.3,0-0.4
		c-0.2-0.1-0.5-0.2-0.8-0.2c0.2-0.1,0.6-0.1,0.8-0.3c0-0.1,0-0.1,0-0.2C20.6,20,20.5,19.9,20.2,19.7L20.2,19.7z M16.2,19
		c-0.3,0.4,1,0.8,1.4,0.9c0-0.2,0.1-0.4,0.1-0.6C17.2,19.2,16.6,19.2,16.2,19L16.2,19z M20.5,19.2C20.5,19.2,20.5,19.2,20.5,19.2
		c0.4,0.4,0.7,0.5,1.3,0.4c0.3-0.2,0.5-0.4,0.8-0.6C22,19,21.2,19.5,20.5,19.2L20.5,19.2z M24.4,20.4c0-0.4-0.1-1.2-0.4-1.3
		c-0.5-0.3-1.4,0.6-1.8,0.7c0,0.1,0.1,0.2,0.1,0.4c0.2-0.1,0.5,0,0.7,0.1c-0.2,0-0.5,0-0.6,0.1c-0.1,0.2,0,0.4,0,0.6
		c0.5,0.2,1.2,0.2,1.8,0.3C24.4,21,24.5,20.7,24.4,20.4L24.4,20.4z M15.7,19.3c-0.1-0.1-0.8-1-0.9-1c-1.3,0.5-2.6,1.4-3.7,2.3
		c1.1,2.3,1.5,5.1,1.6,7.8c1.2,0.6,2.3,1.4,3.9,1.5c-0.2-1.4-0.4-2.6-0.5-3.8c-0.4-0.2-1,0-1.4-0.1c0-0.5,0.6-0.2,0.6-0.5
		c0-0.2-0.3-0.3-0.2-0.6c0.3,0.1,0.5,0.4,0.8,0.4c0.3-0.6,0-1.8,0-2.3c0-0.1,0.1-0.6,0.3-0.5c0.2,0.1,0,1.2,0,1.7
		c0,0.5-0.1,0.9,0.1,1.2c1.6-0.2,3.2-0.4,4.9-0.4c-0.4-0.2-0.8-0.3-1.3-0.6c-0.3-0.2-1.1-0.5-1.2-0.7c-0.1-0.4,0.3-0.6,0.4-1
		c-0.8,0.4-1-0.4-1.2-1c-0.2-0.6-0.3-1-0.3-1.3C17,20.1,16.3,19.8,15.7,19.3L15.7,19.3z M23.7,18.5c1.1-0.5,1.3,2,0.9,2.8
		c0.1,0.2,0.3,0.3,0.4,0.6c-0.6,1.1-1.3,2.1-1.9,3.2c0.5-0.3,1.1-0.1,1.7-0.3c0.2-0.1,0.3-0.5,0.5-0.9c0.4-1,0.9-2.3,1.1-3.3
		c0-0.2,0.2-0.7,0.1-0.9c0-0.4-0.5-0.6-0.8-0.8c-0.4-0.4-0.7-0.8-1.2-1.1C24.3,18,23.9,18.2,23.7,18.5L23.7,18.5z M13.1,8.6
		c-0.5,0.6-0.4,1.7-0.4,2.5c1-0.6,2.2,0,2.2,1.1c0.5,0,0.2-0.6,0.1-0.9c-0.3-1.2,0.5-2.5,0-3.5C14.3,7.7,13.6,8.1,13.1,8.6z
		 M16.9,5.2c-1.2,0.3-2.7,1.2-3.2,2.3c0.4-0.1,0.6-0.2,1-0.3c0.1,0,0.3,0.1,0.5,0c0.3-0.1,0.6-0.8,0.8-1.1c0.2-0.3,0.5-0.4,0.7-0.6
		c0.1-0.1,0.3-0.1,0.3-0.2C17,5.2,17,5.2,16.9,5.2L16.9,5.2z M23.2,5.5c-1.2-0.7-3.4-1.2-4.7-0.6c-1.1,0.5-2.5,1.4-3,2.5
		c0.5,1.1-0.1,2.1-0.2,3.2c0,0.6,0.3,1.1,0.3,1.7c-0.2,0.3-0.6,0.3-1,0.3c-0.1-0.6-0.3-1.2-0.9-1.3c-0.8-0.1-1.4,0.6-1.5,1.3
		c0,0.8,0.6,2.2,1.6,2.1c0.4,0,0.5-0.4,0.9-0.4c0.2,0.4-0.3,0.6-0.4,0.9c0,0.1,0,0.4,0.1,0.5c0.2,0.7,0.6,1.7,1,2.2
		c0.5,0.7,1.4,0.8,2.5,0.9c0.2-0.4,0.9-0.4,1.3-0.3c-0.5-0.2-1-0.7-1.4-1.2c-0.5-0.5-0.9-1.1-1-1.7c0.9,1.2,1.6,2.3,3.2,2.8
		c1.2,0.4,2.6-0.2,3.6-0.8c0.4-0.3,0.6-0.7,0.9-1.1c1-1.5,1.5-3.6,1.4-5.7c0-0.9,0-1.7-0.3-2.3c-0.3-0.6-1.3-1.1-1.9-0.6
		c-0.1-0.6,0.5-0.9,1.2-0.7C24.4,6.7,23.9,5.9,23.2,5.5L23.2,5.5z M25.5,24.7c1-0.5,2.8-1.3,3.4,0c0.2,0.5,0.5,1.3,0.6,1.8
		c0.2,0.7-0.2,2.2-0.9,2.4c-0.6,0.2-1.4,0.2-2.1,0c-0.1-0.1-0.2-0.2-0.3-0.3c-0.5,0-1.1,0-1.5,0.3c0,0.4-0.2,0.5-0.5,0.6
		c-0.2,0.8,0.4,1.7,0.2,2.4c-0.1,0.5-0.7,0.6-1.1,0.7c0,0.3,0,0.5,0,0.7c-0.1,0.4-0.6,0.6-1,0.6c-1.4,0.2-3.6,0.2-4.9-0.2
		c-0.4-0.9-0.7-2.1-1-3.1c-1.3,0.1-2.4-0.6-3.4-1c-0.4-0.2-0.8-0.3-1-0.5c-0.1-0.3-0.1-0.8-0.1-1.3c-0.1-1.2-0.1-2.5-0.5-3.7
		c-0.1-0.6-0.4-1.1-0.6-1.6c-0.2-0.5-0.5-1.1-0.5-1.7c-0.1-0.8,0.6-0.8,1.1-1.1c0.7-0.5,1.3-0.8,2-1.2c0.2-0.1,0.9-0.5,1-0.6
		c0.2-0.3-0.3-0.8-0.4-1c-0.2-0.4-0.3-0.7-0.3-1.1c-0.6-0.1-1.1-0.5-1.4-0.9c-0.5-0.7-0.8-2-0.4-3c0-0.1,0.2-0.2,0.2-0.4
		c0-0.2-0.1-0.6-0.1-0.8c0-1.3,0.2-2.4,1.1-2.8C13.5,6.2,14.8,5.7,16,5c0.4-0.3,0.9-0.4,1.5-0.6c1.8-0.7,4.6-0.5,6.2,0.6
		c0.6,0.5,1.7,1.5,2,2.3c1,2,0.9,5.2,0.2,7.6c-0.1,0.3-0.2,0.8-0.4,1.2c-0.1,0.3-0.5,0.8-0.5,1c0.1,0.2,0.9,0.9,1.1,1.1
		c0.3,0.3,1,0.7,1,1.2c0.1,0.4-0.2,1-0.3,1.4C26.3,22.2,25.9,23.5,25.5,24.7"/>
	<path class="st7" d="M19,15.1c0.1-0.1,0.3-0.2,0.7,0c0,0-0.5,0.1-0.4,0.9l-0.2,0C19.1,16,18.9,15.2,19,15.1"/>
	<path class="st12" d="M22.5,22c0,0.1-0.1,0.2-0.2,0.2s-0.2-0.1-0.2-0.2s0.1-0.2,0.2-0.2S22.5,21.9,22.5,22 M22.7,23
		c0,0.1-0.1,0.2-0.2,0.2c-0.1,0-0.2-0.1-0.2-0.2c0-0.1,0.1-0.2,0.2-0.2C22.6,22.8,22.7,22.9,22.7,23"/>
</g>
</svg>
