<?xml version="1.0" encoding="utf-8"?>
<!-- Generator: Adobe Illustrator 25.4.0, SVG Export Plug-In . SVG Version: 6.00 Build 0)  -->
<svg version="1.1" id="Layer_1" xmlns="http://www.w3.org/2000/svg" xmlns:xlink="http://www.w3.org/1999/xlink" x="0px" y="0px"
	 viewBox="0 0 37.9 38" style="enable-background:new 0 0 37.9 38;" xml:space="preserve">
<style type="text/css">
	.st0{fill:#4D453F;}
	.st1{fill-rule:evenodd;clip-rule:evenodd;fill:#ED1844;}
</style>
<g id="Layer_1_00000005986681103818449360000007804609034820659075_">
	<g id="Layer_1_00000154386492545488396280000012159222154907207566_">
		<g id="bkg">
			<path class="st0" d="M29.4,38H8.6C3.9,38,0,34.1,0,29.4V8.6C0,3.9,3.9,0,8.6,0h20.7c4.8,0,8.6,3.9,8.6,8.6v20.7
				C38,34.1,34.1,38,29.4,38z"/>
		</g>
	</g>
</g>
<g>
	<path class="st1" d="M27.3,9H10.6c-1,0-1.9,0.9-1.9,1.9v4.5h4.6v-0.7c0-0.6,0.5-1,1-1h9.2c0.6,0,1,0.5,1,1c0,0,0,0,0,0v0.7h4.6
		v-4.5C29.2,9.9,28.3,9,27.3,9L27.3,9z M24.6,23.4c0,0.6-0.5,1-1,1h-9.2c-0.6,0-1-0.5-1-1v-0.7H8.7v4.5c0,1,0.9,1.9,1.9,1.9h16.6
		c1,0,1.9-0.9,1.9-1.9v-4.5h-4.6L24.6,23.4z"/>
	<path class="st1" d="M8.7,21.3h4.6v-4.6H8.7V21.3z M24.6,21.3h4.6v-4.6h-4.6V21.3z"/>
</g>
</svg>
