<?xml version="1.0" encoding="utf-8"?>
<!-- Generator: Adobe Illustrator 25.4.0, SVG Export Plug-In . SVG Version: 6.00 Build 0)  -->
<svg version="1.1" id="Layer_1" xmlns="http://www.w3.org/2000/svg" xmlns:xlink="http://www.w3.org/1999/xlink" x="0px" y="0px"
	 viewBox="0 0 37.9 38" style="enable-background:new 0 0 37.9 38;" xml:space="preserve">
<style type="text/css">
	.st0{fill:#03A9F4;}
	.st1{fill:#81D4FA;}
</style>
<path class="st0" d="M29.4,38H8.6C3.9,38,0,34.1,0,29.4V8.6C0,3.9,3.9,0,8.6,0h20.7c4.8,0,8.6,3.9,8.6,8.6v20.7
	C38,34.1,34.1,38,29.4,38z"/>
<path class="st1" d="M31,29.6c2.5-2.8,4-6.5,4-10.6s-1.5-7.7-4-10.6l2.8-2.8l0,0l2.4-2.4c-0.4-0.5-0.9-1-1.4-1.4L29.6,7
	C26.7,4.5,23.1,3,19,3S11.3,4.5,8.4,7L3.3,1.9c-0.5,0.4-1,0.9-1.4,1.4L7,8.4C4.5,11.3,3,14.9,3,19s1.5,7.7,4,10.6l-5.1,5.1
	c0.4,0.5,0.9,1,1.4,1.4l2.4-2.4l0,0l2.8-2.8c2.8,2.5,6.5,4,10.6,4s7.7-1.5,10.6-4l5.1,5.1c0.5-0.4,1-0.9,1.4-1.4L31,29.6z M33,19
	c0,3.5-1.3,6.7-3.4,9.2L26,24.6c1.2-1.5,2-3.5,2-5.6s-0.7-4.1-2-5.6l3.5-3.5C31.7,12.3,33,15.5,33,19z M12,19c0-1.6,0.5-3,1.4-4.2
	l4.2,4.2l-4.2,4.2C12.5,22,12,20.6,12,19z M19,17.6l-4.2-4.2C16,12.5,17.4,12,19,12s3,0.5,4.2,1.4L19,17.6z M19,20.4l4.2,4.2
	C22,25.5,20.6,26,19,26s-3-0.5-4.2-1.4L19,20.4z M20.4,19l4.2-4.2C25.5,16,26,17.4,26,19s-0.5,3-1.4,4.2L20.4,19z M19,5
	c3.5,0,6.7,1.3,9.2,3.4L24.6,12c-1.5-1.2-3.5-2-5.6-2s-4.1,0.7-5.6,2L9.9,8.5C12.3,6.3,15.5,5,19,5z M5,19c0-3.5,1.3-6.7,3.4-9.2
	l3.5,3.5c-1.2,1.5-2,3.5-2,5.6s0.7,4.1,2,5.6L8.4,28C6.3,25.7,5,22.5,5,19z M19,33c-3.5,0-6.7-1.3-9.2-3.4l3.5-3.5
	c1.5,1.2,3.5,2,5.6,2s4.1-0.7,5.6-2l3.5,3.5C25.7,31.7,22.5,33,19,33z"/>
</svg>
