<?xml version="1.0" encoding="utf-8"?>
<!-- Generator: Adobe Illustrator 25.4.0, SVG Export Plug-In . SVG Version: 6.00 Build 0)  -->
<svg version="1.1" id="Layer_1" xmlns="http://www.w3.org/2000/svg" xmlns:xlink="http://www.w3.org/1999/xlink" x="0px" y="0px"
	 viewBox="0 0 37.9 38" style="enable-background:new 0 0 37.9 38;" xml:space="preserve">
<style type="text/css">
	.st0{fill:#76C8BE;}
	.st1{fill:#323940;}
	.st2{fill:#CACCCD;}
</style>
<g id="bkg">
	<path class="st0" d="M29.4,38H8.6C3.9,38,0,34.1,0,29.4V8.6C0,3.9,3.9,0,8.6,0h20.7c4.8,0,8.6,3.9,8.6,8.6v20.7
		C38,34.1,34.1,38,29.4,38z"/>
</g>
<g id="_x39_uxj6Y.tif">
	<g>
		<path class="st1" d="M20.7,6.6C20.7,6.6,20.7,6.7,20.7,6.6c0,1.9,0,3.7,0,5.6c0,0.1,0,0.1,0.1,0.1c1.2,0,2.3,0,3.6,0
			c0.1,0,0.1,0,0.1,0.1c0,1,0,2,0,3c0,0.1,0,0.1-0.1,0.1c-1.2,0-2.4,0-3.6,0c-0.1,0-0.1,0-0.1,0.1c0,3.3,0,6.7,0,10
			c0,0.4,0,0.8,0.1,1.2c0,0.3,0.1,0.6,0.2,0.8c0.2,0.2,0.4,0.4,0.7,0.5s0.6,0.1,0.9,0.1s0.7,0,1,0c0.2,0,0.5-0.1,0.7-0.1
			c0.1,0,0.1,0,0.1,0c0,1.1,0,2.1,0,3.1c0,0,0,0.1-0.1,0.1c-0.5,0.1-1.1,0.1-1.6,0.2c-0.5,0.1-1.1,0.1-1.6,0c-0.3,0-0.7,0-1-0.1
			c-0.6-0.1-1.2-0.2-1.7-0.5c-0.7-0.3-1.2-0.9-1.4-1.7c-0.1-0.3-0.2-0.7-0.2-1c-0.1-0.7-0.2-1.3-0.2-2.1c0-3.6,0-7.1,0-10.7
			c0-0.1,0-0.1-0.1-0.1c-1,0-1.9,0-2.9,0h-0.1c0-1.1,0-2.1,0-3.1h0.1c0.5,0,1.1,0,1.6,0c0.4,0,0.8,0,1.2,0c0,0,0,0,0.1,0
			c0,0,0.1,0,0.1-0.1V12c0-1.8,0-3.6,0-5.5V6.4c0,0,0,0,0.1,0C18,6.6,19.3,6.6,20.7,6.6L20.7,6.6z"/>
		<path class="st2" d="M16.6,6.6L16.6,6.6c1.3,0,2.7,0,4,0l0,0C19.3,6.6,18,6.6,16.6,6.6C16.7,6.6,16.7,6.6,16.6,6.6z"/>
	</g>
</g>
</svg>
