<?xml version="1.0" encoding="utf-8"?>
<!-- Generator: Adobe Illustrator 25.4.0, SVG Export Plug-In . SVG Version: 6.00 Build 0)  -->
<svg version="1.1" id="Layer_1" xmlns="http://www.w3.org/2000/svg" xmlns:xlink="http://www.w3.org/1999/xlink" x="0px" y="0px"
	 viewBox="0 0 37.9 38" style="enable-background:new 0 0 37.9 38;" xml:space="preserve">
<style type="text/css">
	.st0{fill:#76C8BE;}
	.st1{fill:#323940;}
	.st2{fill:#CACCCD;}
</style>
<g id="bkg">
	<path class="st0" d="M29.4,38H8.6C3.9,38,0,34.1,0,29.4V8.6C0,3.9,3.9,0,8.6,0h20.7c4.8,0,8.6,3.9,8.6,8.6v20.7
		C38,34.1,34.1,38,29.4,38z"/>
</g>
<g id="_x39_uxj6Y.tif">
	<g>
		<path class="st1" d="M21,4C21,4,21,4.1,21,4c0,2.3,0,4.5,0,6.8c0,0.1,0,0.1,0.1,0.1c1.4,0,2.8,0,4.3,0c0.1,0,0.1,0,0.1,0.1
			c0,1.2,0,2.4,0,3.6c0,0.1,0,0.1-0.1,0.1c-1.4,0-2.9,0-4.3,0c-0.1,0-0.1,0-0.1,0.1c0,4,0,8.1,0,12.1c0,0.5,0,1,0.1,1.4
			c0,0.4,0.1,0.7,0.3,1c0.2,0.3,0.5,0.5,0.8,0.6c0.3,0.1,0.7,0.1,1.1,0.1c0.4,0,0.8,0,1.2,0c0.3,0,0.6-0.1,0.9-0.1
			c0.1,0,0.1,0,0.1,0c0,1.3,0,2.5,0,3.8c0,0,0,0.1-0.1,0.1c-0.6,0.1-1.3,0.1-1.9,0.2c-0.6,0.1-1.3,0.1-1.9,0c-0.4,0-0.8,0-1.2-0.1
			c-0.7-0.1-1.4-0.3-2-0.6c-0.8-0.4-1.4-1.1-1.7-2c-0.1-0.4-0.2-0.8-0.3-1.2c-0.1-0.8-0.2-1.6-0.2-2.5c0-4.3,0-8.6,0-13
			c0-0.1,0-0.1-0.1-0.1c-1.2,0-2.3,0-3.5,0c0,0-0.1,0-0.1,0c0-1.3,0-2.5,0-3.8c0,0,0.1,0,0.1,0c0.6,0,1.3,0,1.9,0c0.5,0,1,0,1.5,0
			c0,0,0,0,0.1,0c0,0,0.1,0,0.1-0.1c0,0,0-0.1,0-0.1c0-2.2,0-4.4,0-6.6c0,0,0-0.1,0-0.1c0,0,0,0,0.1,0C17.8,4,19.4,4,21,4
			C21,4,21,4,21,4z"/>
		<path class="st2" d="M16.1,4C16.1,4,16.1,4,16.1,4c1.6,0,3.3,0,4.9,0c0,0,0,0,0,0C19.4,4,17.8,4,16.1,4C16.2,4,16.2,4,16.1,4z"/>
	</g>
</g>
</svg>
