<?xml version="1.0" encoding="utf-8"?>
<!-- Generator: Adobe Illustrator 25.4.0, SVG Export Plug-In . SVG Version: 6.00 Build 0)  -->
<svg version="1.1" id="Layer_1" xmlns="http://www.w3.org/2000/svg" xmlns:xlink="http://www.w3.org/1999/xlink" x="0px" y="0px"
	 viewBox="0 0 37.9 38" style="enable-background:new 0 0 37.9 38;" xml:space="preserve">
<style type="text/css">
	.st0{fill:#1A428A;}
	.st1{fill:#78BE20;}
	.st2{fill:#00C1D5;}
	.st3{fill:#0091DA;}
</style>
<g id="bkg">
	<path class="st0" d="M29.4,38H8.6C3.9,38,0,34.1,0,29.4V8.6C0,3.9,3.9,0,8.6,0h20.7c4.8,0,8.6,3.9,8.6,8.6v20.7
		C38,34.1,34.1,38,29.4,38z"/>
</g>
<g>
	<path class="st1" d="M27.2,6.5h-6.7l-1,1h7.7c1.8,0,3.3,1.5,3.3,3.3v16.5c0,1.8-1.5,3.3-3.3,3.3h-6.5l-1,1h7.5
		c2.3,0,4.3-1.9,4.3-4.3V10.8C31.4,8.4,29.5,6.5,27.2,6.5z"/>
	<path class="st2" d="M18.4,30.5h-7.7c-1.8,0-3.3-1.5-3.3-3.3V10.8c0-1.8,1.5-3.3,3.3-3.3h6.5l1-1h-7.5c-2.3,0-4.3,1.9-4.3,4.3v16.5
		c0,2.3,1.9,4.3,4.3,4.3h6.7L18.4,30.5z"/>
	<path class="st3" d="M26.5,28.5H15.7c-1.1,0-2-0.9-2-2V15.5c0-1.1,0.9-2,2-2h10.8c1.1,0,2,0.9,2,2v11.1
		C28.5,27.7,27.6,28.5,26.5,28.5z M15.7,14.5c-0.5,0-1,0.4-1,1v11.1c0,0.5,0.4,1,1,1h10.8c0.5,0,1-0.4,1-1V15.5c0-0.5-0.4-1-1-1
		L15.7,14.5z M12.7,23.5h-1.4c-0.5,0-1-0.4-1-1V11.4c0-0.5,0.4-1,1-1h10.8c0.5,0,1,0.4,1,1v1.1h1v-1.1c0-1.1-0.9-2-2-2H11.3
		c-1.1,0-2,0.9-2,2v11.1c0,1.1,0.9,2,2,2h1.4V23.5z"/>
</g>
</svg>
